<?xml version="1.0" encoding="utf-8" standalone="no"?>
<!DOCTYPE svg PUBLIC "-//W3C//DTD SVG 1.1//EN"
  "http://www.w3.org/Graphics/SVG/1.1/DTD/svg11.dtd">
<svg xmlns:xlink="http://www.w3.org/1999/xlink" width="382.32pt" height="187.2pt" viewBox="0 0 382.32 187.2" xmlns="http://www.w3.org/2000/svg" version="1.1">
 <metadata>
  <rdf:RDF xmlns:dc="http://purl.org/dc/elements/1.1/" xmlns:cc="http://creativecommons.org/ns#" xmlns:rdf="http://www.w3.org/1999/02/22-rdf-syntax-ns#">
   <cc:Work>
    <dc:type rdf:resource="http://purl.org/dc/dcmitype/StillImage"/>
    <dc:date>2025-04-21T12:04:06.802570</dc:date>
    <dc:format>image/svg+xml</dc:format>
    <dc:creator>
     <cc:Agent>
      <dc:title>Matplotlib v3.8.3, https://matplotlib.org/</dc:title>
     </cc:Agent>
    </dc:creator>
   </cc:Work>
  </rdf:RDF>
 </metadata>
 <defs>
  <style type="text/css">*{stroke-linejoin: round; stroke-linecap: butt}</style>
 </defs>
 <g id="figure_1">
  <g id="patch_1">
   <path d="M 0 187.2 
L 382.32 187.2 
L 382.32 0 
L 0 0 
z
" style="fill: #ffffff"/>
  </g>
  <g id="axes_1">
   <g id="patch_2">
    <path d="M 43.8545 68.496204 
L 146.249969 68.496204 
L 146.249969 23.685 
L 43.8545 23.685 
z
" style="fill: #ffffff"/>
   </g>
   <g id="matplotlib.axis_1">
    <g id="xtick_1">
     <g id="line2d_1">
      <path d="M 60.650595 68.496204 
L 60.650595 23.685 
" clip-path="url(#p63ac743612)" style="fill: none; stroke-dasharray: 0.925,0.4; stroke-dashoffset: 0; stroke: #b0b0b0; stroke-width: 0.25"/>
     </g>
     <g id="line2d_2">
      <defs>
       <path id="mf5ae3c2076" d="M 0 0 
L 0 3.5 
" style="stroke: #000000; stroke-width: 0.8"/>
      </defs>
      <g>
       <use xlink:href="#mf5ae3c2076" x="60.650595" y="68.496204" style="stroke: #000000; stroke-width: 0.8"/>
      </g>
     </g>
     <g id="text_1">
      <!-- 03 -->
      <g transform="translate(56.196845 80.81511) scale(0.07 -0.07)">
       <defs>
        <path id="DejaVuSans-30" d="M 2034 4250 
Q 1547 4250 1301 3770 
Q 1056 3291 1056 2328 
Q 1056 1369 1301 889 
Q 1547 409 2034 409 
Q 2525 409 2770 889 
Q 3016 1369 3016 2328 
Q 3016 3291 2770 3770 
Q 2525 4250 2034 4250 
z
M 2034 4750 
Q 2819 4750 3233 4129 
Q 3647 3509 3647 2328 
Q 3647 1150 3233 529 
Q 2819 -91 2034 -91 
Q 1250 -91 836 529 
Q 422 1150 422 2328 
Q 422 3509 836 4129 
Q 1250 4750 2034 4750 
z
" transform="scale(0.015625)"/>
        <path id="DejaVuSans-33" d="M 2597 2516 
Q 3050 2419 3304 2112 
Q 3559 1806 3559 1356 
Q 3559 666 3084 287 
Q 2609 -91 1734 -91 
Q 1441 -91 1130 -33 
Q 819 25 488 141 
L 488 750 
Q 750 597 1062 519 
Q 1375 441 1716 441 
Q 2309 441 2620 675 
Q 2931 909 2931 1356 
Q 2931 1769 2642 2001 
Q 2353 2234 1838 2234 
L 1294 2234 
L 1294 2753 
L 1863 2753 
Q 2328 2753 2575 2939 
Q 2822 3125 2822 3475 
Q 2822 3834 2567 4026 
Q 2313 4219 1838 4219 
Q 1578 4219 1281 4162 
Q 984 4106 628 3988 
L 628 4550 
Q 988 4650 1302 4700 
Q 1616 4750 1894 4750 
Q 2613 4750 3031 4423 
Q 3450 4097 3450 3541 
Q 3450 3153 3228 2886 
Q 3006 2619 2597 2516 
z
" transform="scale(0.015625)"/>
       </defs>
       <use xlink:href="#DejaVuSans-30"/>
       <use xlink:href="#DejaVuSans-33" x="63.623047"/>
      </g>
     </g>
    </g>
    <g id="xtick_2">
     <g id="line2d_3">
      <path d="M 84.934105 68.496204 
L 84.934105 23.685 
" clip-path="url(#p63ac743612)" style="fill: none; stroke-dasharray: 0.925,0.4; stroke-dashoffset: 0; stroke: #b0b0b0; stroke-width: 0.25"/>
     </g>
     <g id="line2d_4">
      <g>
       <use xlink:href="#mf5ae3c2076" x="84.934105" y="68.496204" style="stroke: #000000; stroke-width: 0.8"/>
      </g>
     </g>
     <g id="text_2">
      <!-- 09 -->
      <g transform="translate(80.480355 80.81511) scale(0.07 -0.07)">
       <defs>
        <path id="DejaVuSans-39" d="M 703 97 
L 703 672 
Q 941 559 1184 500 
Q 1428 441 1663 441 
Q 2288 441 2617 861 
Q 2947 1281 2994 2138 
Q 2813 1869 2534 1725 
Q 2256 1581 1919 1581 
Q 1219 1581 811 2004 
Q 403 2428 403 3163 
Q 403 3881 828 4315 
Q 1253 4750 1959 4750 
Q 2769 4750 3195 4129 
Q 3622 3509 3622 2328 
Q 3622 1225 3098 567 
Q 2575 -91 1691 -91 
Q 1453 -91 1209 -44 
Q 966 3 703 97 
z
M 1959 2075 
Q 2384 2075 2632 2365 
Q 2881 2656 2881 3163 
Q 2881 3666 2632 3958 
Q 2384 4250 1959 4250 
Q 1534 4250 1286 3958 
Q 1038 3666 1038 3163 
Q 1038 2656 1286 2365 
Q 1534 2075 1959 2075 
z
" transform="scale(0.015625)"/>
       </defs>
       <use xlink:href="#DejaVuSans-30"/>
       <use xlink:href="#DejaVuSans-39" x="63.623047"/>
      </g>
     </g>
    </g>
    <g id="xtick_3">
     <g id="line2d_5">
      <path d="M 109.217615 68.496204 
L 109.217615 23.685 
" clip-path="url(#p63ac743612)" style="fill: none; stroke-dasharray: 0.925,0.4; stroke-dashoffset: 0; stroke: #b0b0b0; stroke-width: 0.25"/>
     </g>
     <g id="line2d_6">
      <g>
       <use xlink:href="#mf5ae3c2076" x="109.217615" y="68.496204" style="stroke: #000000; stroke-width: 0.8"/>
      </g>
     </g>
     <g id="text_3">
      <!-- 15 -->
      <g transform="translate(104.763865 80.81511) scale(0.07 -0.07)">
       <defs>
        <path id="DejaVuSans-31" d="M 794 531 
L 1825 531 
L 1825 4091 
L 703 3866 
L 703 4441 
L 1819 4666 
L 2450 4666 
L 2450 531 
L 3481 531 
L 3481 0 
L 794 0 
L 794 531 
z
" transform="scale(0.015625)"/>
        <path id="DejaVuSans-35" d="M 691 4666 
L 3169 4666 
L 3169 4134 
L 1269 4134 
L 1269 2991 
Q 1406 3038 1543 3061 
Q 1681 3084 1819 3084 
Q 2600 3084 3056 2656 
Q 3513 2228 3513 1497 
Q 3513 744 3044 326 
Q 2575 -91 1722 -91 
Q 1428 -91 1123 -41 
Q 819 9 494 109 
L 494 744 
Q 775 591 1075 516 
Q 1375 441 1709 441 
Q 2250 441 2565 725 
Q 2881 1009 2881 1497 
Q 2881 1984 2565 2268 
Q 2250 2553 1709 2553 
Q 1456 2553 1204 2497 
Q 953 2441 691 2322 
L 691 4666 
z
" transform="scale(0.015625)"/>
       </defs>
       <use xlink:href="#DejaVuSans-31"/>
       <use xlink:href="#DejaVuSans-35" x="63.623047"/>
      </g>
     </g>
    </g>
    <g id="xtick_4">
     <g id="line2d_7">
      <path d="M 133.501126 68.496204 
L 133.501126 23.685 
" clip-path="url(#p63ac743612)" style="fill: none; stroke-dasharray: 0.925,0.4; stroke-dashoffset: 0; stroke: #b0b0b0; stroke-width: 0.25"/>
     </g>
     <g id="line2d_8">
      <g>
       <use xlink:href="#mf5ae3c2076" x="133.501126" y="68.496204" style="stroke: #000000; stroke-width: 0.8"/>
      </g>
     </g>
     <g id="text_4">
      <!-- 21 -->
      <g transform="translate(129.047376 80.81511) scale(0.07 -0.07)">
       <defs>
        <path id="DejaVuSans-32" d="M 1228 531 
L 3431 531 
L 3431 0 
L 469 0 
L 469 531 
Q 828 903 1448 1529 
Q 2069 2156 2228 2338 
Q 2531 2678 2651 2914 
Q 2772 3150 2772 3378 
Q 2772 3750 2511 3984 
Q 2250 4219 1831 4219 
Q 1534 4219 1204 4116 
Q 875 4013 500 3803 
L 500 4441 
Q 881 4594 1212 4672 
Q 1544 4750 1819 4750 
Q 2544 4750 2975 4387 
Q 3406 4025 3406 3419 
Q 3406 3131 3298 2873 
Q 3191 2616 2906 2266 
Q 2828 2175 2409 1742 
Q 1991 1309 1228 531 
z
" transform="scale(0.015625)"/>
       </defs>
       <use xlink:href="#DejaVuSans-32"/>
       <use xlink:href="#DejaVuSans-31" x="63.623047"/>
      </g>
     </g>
    </g>
   </g>
   <g id="matplotlib.axis_2">
    <g id="ytick_1">
     <g id="line2d_9">
      <path d="M 43.8545 64.955029 
L 146.249969 64.955029 
" clip-path="url(#p63ac743612)" style="fill: none; stroke-dasharray: 0.925,0.4; stroke-dashoffset: 0; stroke: #b0b0b0; stroke-width: 0.25"/>
     </g>
     <g id="line2d_10">
      <defs>
       <path id="mfda4aba477" d="M 0 0 
L -3.5 0 
" style="stroke: #000000; stroke-width: 0.8"/>
      </defs>
      <g>
       <use xlink:href="#mfda4aba477" x="43.8545" y="64.955029" style="stroke: #000000; stroke-width: 0.8"/>
      </g>
     </g>
     <g id="text_5">
      <!-- 0 -->
      <g transform="translate(32.40075 67.614482) scale(0.07 -0.07)">
       <use xlink:href="#DejaVuSans-30"/>
      </g>
     </g>
    </g>
    <g id="ytick_2">
     <g id="line2d_11">
      <path d="M 43.8545 52.823565 
L 146.249969 52.823565 
" clip-path="url(#p63ac743612)" style="fill: none; stroke-dasharray: 0.925,0.4; stroke-dashoffset: 0; stroke: #b0b0b0; stroke-width: 0.25"/>
     </g>
     <g id="line2d_12">
      <g>
       <use xlink:href="#mfda4aba477" x="43.8545" y="52.823565" style="stroke: #000000; stroke-width: 0.8"/>
      </g>
     </g>
     <g id="text_6">
      <!-- 5 -->
      <g transform="translate(32.40075 55.483018) scale(0.07 -0.07)">
       <use xlink:href="#DejaVuSans-35"/>
      </g>
     </g>
    </g>
    <g id="ytick_3">
     <g id="line2d_13">
      <path d="M 43.8545 40.6921 
L 146.249969 40.6921 
" clip-path="url(#p63ac743612)" style="fill: none; stroke-dasharray: 0.925,0.4; stroke-dashoffset: 0; stroke: #b0b0b0; stroke-width: 0.25"/>
     </g>
     <g id="line2d_14">
      <g>
       <use xlink:href="#mfda4aba477" x="43.8545" y="40.6921" style="stroke: #000000; stroke-width: 0.8"/>
      </g>
     </g>
     <g id="text_7">
      <!-- 10 -->
      <g transform="translate(27.947 43.351553) scale(0.07 -0.07)">
       <use xlink:href="#DejaVuSans-31"/>
       <use xlink:href="#DejaVuSans-30" x="63.623047"/>
      </g>
     </g>
    </g>
    <g id="ytick_4">
     <g id="line2d_15">
      <path d="M 43.8545 28.560636 
L 146.249969 28.560636 
" clip-path="url(#p63ac743612)" style="fill: none; stroke-dasharray: 0.925,0.4; stroke-dashoffset: 0; stroke: #b0b0b0; stroke-width: 0.25"/>
     </g>
     <g id="line2d_16">
      <g>
       <use xlink:href="#mfda4aba477" x="43.8545" y="28.560636" style="stroke: #000000; stroke-width: 0.8"/>
      </g>
     </g>
     <g id="text_8">
      <!-- 15 -->
      <g transform="translate(27.947 31.220089) scale(0.07 -0.07)">
       <use xlink:href="#DejaVuSans-31"/>
       <use xlink:href="#DejaVuSans-35" x="63.623047"/>
      </g>
     </g>
    </g>
    <g id="ytick_5">
     <g id="line2d_17">
      <defs>
       <path id="m125a8ea00f" d="M 0 0 
L -2 0 
" style="stroke: #000000; stroke-width: 0.6"/>
      </defs>
      <g>
       <use xlink:href="#m125a8ea00f" x="43.8545" y="67.381322" style="stroke: #000000; stroke-width: 0.6"/>
      </g>
     </g>
    </g>
    <g id="ytick_6">
     <g id="line2d_18">
      <g>
       <use xlink:href="#m125a8ea00f" x="43.8545" y="62.528736" style="stroke: #000000; stroke-width: 0.6"/>
      </g>
     </g>
    </g>
    <g id="ytick_7">
     <g id="line2d_19">
      <g>
       <use xlink:href="#m125a8ea00f" x="43.8545" y="60.102443" style="stroke: #000000; stroke-width: 0.6"/>
      </g>
     </g>
    </g>
    <g id="ytick_8">
     <g id="line2d_20">
      <g>
       <use xlink:href="#m125a8ea00f" x="43.8545" y="57.676151" style="stroke: #000000; stroke-width: 0.6"/>
      </g>
     </g>
    </g>
    <g id="ytick_9">
     <g id="line2d_21">
      <g>
       <use xlink:href="#m125a8ea00f" x="43.8545" y="55.249858" style="stroke: #000000; stroke-width: 0.6"/>
      </g>
     </g>
    </g>
    <g id="ytick_10">
     <g id="line2d_22">
      <g>
       <use xlink:href="#m125a8ea00f" x="43.8545" y="50.397272" style="stroke: #000000; stroke-width: 0.6"/>
      </g>
     </g>
    </g>
    <g id="ytick_11">
     <g id="line2d_23">
      <g>
       <use xlink:href="#m125a8ea00f" x="43.8545" y="47.970979" style="stroke: #000000; stroke-width: 0.6"/>
      </g>
     </g>
    </g>
    <g id="ytick_12">
     <g id="line2d_24">
      <g>
       <use xlink:href="#m125a8ea00f" x="43.8545" y="45.544686" style="stroke: #000000; stroke-width: 0.6"/>
      </g>
     </g>
    </g>
    <g id="ytick_13">
     <g id="line2d_25">
      <g>
       <use xlink:href="#m125a8ea00f" x="43.8545" y="43.118393" style="stroke: #000000; stroke-width: 0.6"/>
      </g>
     </g>
    </g>
    <g id="ytick_14">
     <g id="line2d_26">
      <g>
       <use xlink:href="#m125a8ea00f" x="43.8545" y="38.265807" style="stroke: #000000; stroke-width: 0.6"/>
      </g>
     </g>
    </g>
    <g id="ytick_15">
     <g id="line2d_27">
      <g>
       <use xlink:href="#m125a8ea00f" x="43.8545" y="35.839514" style="stroke: #000000; stroke-width: 0.6"/>
      </g>
     </g>
    </g>
    <g id="ytick_16">
     <g id="line2d_28">
      <g>
       <use xlink:href="#m125a8ea00f" x="43.8545" y="33.413222" style="stroke: #000000; stroke-width: 0.6"/>
      </g>
     </g>
    </g>
    <g id="ytick_17">
     <g id="line2d_29">
      <g>
       <use xlink:href="#m125a8ea00f" x="43.8545" y="30.986929" style="stroke: #000000; stroke-width: 0.6"/>
      </g>
     </g>
    </g>
    <g id="ytick_18">
     <g id="line2d_30">
      <g>
       <use xlink:href="#m125a8ea00f" x="43.8545" y="26.134343" style="stroke: #000000; stroke-width: 0.6"/>
      </g>
     </g>
    </g>
    <g id="ytick_19">
     <g id="line2d_31">
      <g>
       <use xlink:href="#m125a8ea00f" x="43.8545" y="23.70805" style="stroke: #000000; stroke-width: 0.6"/>
      </g>
     </g>
    </g>
    <g id="text_9">
     <!-- Price (GBP MWh$^{-1}$) -->
     <g transform="translate(22.06825 80.090602) rotate(-90) scale(0.08 -0.08)">
      <defs>
       <path id="LinBiolinum-50" d="M 1216 3616 
L 1216 2106 
Q 1338 2044 1722 2041 
Q 2216 2041 2458 2262 
Q 2700 2484 2700 3016 
Q 2700 3291 2623 3472 
Q 2547 3653 2406 3743 
Q 2266 3834 2122 3865 
Q 1978 3897 1791 3897 
Q 1459 3897 1337 3830 
Q 1216 3763 1216 3616 
z
M 666 2847 
Q 666 3672 603 4128 
L 616 4147 
Q 731 4128 941 4128 
Q 1038 4128 1395 4150 
Q 1753 4172 1838 4172 
Q 2259 4172 2567 4067 
Q 2875 3963 3028 3786 
Q 3181 3609 3251 3426 
Q 3322 3244 3322 3047 
Q 3322 2828 3236 2614 
Q 3150 2400 2976 2204 
Q 2803 2009 2486 1887 
Q 2169 1766 1753 1766 
Q 1413 1766 1216 1831 
L 1216 1281 
Q 1216 456 1281 0 
L 1269 -19 
Q 1153 0 940 0 
Q 728 0 616 -19 
L 603 0 
Q 666 434 666 1281 
L 666 2847 
z
" transform="scale(0.015625)"/>
       <path id="LinBiolinum-72" d="M 1069 2138 
L 1088 2125 
Q 1313 2509 1481 2659 
Q 1650 2809 1900 2809 
Q 1978 2809 2131 2766 
L 2156 2741 
L 2028 2266 
L 1978 2253 
Q 1881 2344 1644 2344 
Q 1431 2344 1288 2119 
Q 1069 1788 1069 1484 
L 1069 1153 
Q 1069 438 1125 0 
L 1113 -19 
Q 997 0 812 0 
Q 628 0 513 -19 
L 500 0 
Q 556 397 556 1153 
L 556 1503 
Q 556 2388 500 2747 
L 513 2766 
Q 794 2741 1031 2784 
Q 1069 2784 1069 2719 
L 1069 2138 
z
" transform="scale(0.015625)"/>
       <path id="LinBiolinum-69" d="M 611 3594 
Q 513 3694 513 3822 
Q 513 3950 611 4048 
Q 709 4147 837 4147 
Q 966 4147 1066 4048 
Q 1166 3950 1166 3822 
Q 1166 3694 1066 3594 
Q 966 3494 837 3494 
Q 709 3494 611 3594 
z
M 575 1503 
Q 575 2353 519 2747 
L 531 2766 
Q 806 2747 1088 2772 
Q 1125 2772 1136 2762 
Q 1147 2753 1147 2706 
Q 1091 2169 1088 1606 
L 1088 1153 
Q 1088 456 1147 0 
L 1131 -19 
Q 1016 0 831 0 
Q 647 0 531 -19 
L 519 0 
Q 575 428 575 1153 
L 575 1503 
z
" transform="scale(0.015625)"/>
       <path id="LinBiolinum-63" d="M 1600 2553 
Q 1269 2553 1037 2247 
Q 806 1941 806 1428 
Q 806 884 1040 570 
Q 1275 256 1638 256 
Q 2022 256 2322 525 
L 2350 525 
L 2472 391 
Q 2113 -63 1528 -63 
Q 941 -63 592 332 
Q 244 728 244 1394 
Q 244 2016 659 2412 
Q 1075 2809 1606 2809 
Q 2113 2809 2456 2631 
L 2472 2613 
L 2322 2088 
L 2241 2081 
Q 1966 2553 1600 2553 
z
" transform="scale(0.015625)"/>
       <path id="LinBiolinum-65" d="M 800 1747 
L 1978 1747 
Q 2069 1747 2069 1838 
Q 2069 2169 1898 2361 
Q 1728 2553 1528 2553 
Q 1456 2553 1365 2518 
Q 1275 2484 1156 2403 
Q 1038 2322 938 2150 
Q 838 1978 800 1747 
z
M 2509 666 
L 2638 506 
Q 2453 250 2158 93 
Q 1863 -63 1522 -63 
Q 856 -63 506 359 
Q 219 706 219 1338 
Q 219 2003 625 2406 
Q 1031 2809 1528 2809 
Q 2103 2809 2370 2445 
Q 2638 2081 2638 1600 
Q 2638 1491 2522 1491 
L 781 1491 
Q 781 922 934 678 
Q 1166 313 1631 313 
Q 2184 313 2509 666 
z
" transform="scale(0.015625)"/>
       <path id="LinBiolinum-20" transform="scale(0.015625)"/>
       <path id="LinBiolinum-28" d="M 281 1613 
Q 281 2469 659 3237 
Q 1038 4006 1638 4525 
L 1784 4409 
Q 813 3316 813 1613 
Q 813 -78 1784 -1197 
L 1638 -1306 
Q 1259 -981 987 -582 
Q 716 -184 584 131 
Q 453 447 376 797 
Q 300 1147 290 1303 
Q 281 1459 281 1613 
z
" transform="scale(0.015625)"/>
       <path id="LinBiolinum-47" d="M 3494 750 
Q 3475 1634 3431 1966 
L 3444 1984 
Q 3553 1966 3769 1966 
Q 3769 1966 4103 1984 
L 4109 1966 
Q 4047 1544 4044 878 
L 4044 838 
Q 4044 606 4109 531 
L 4109 513 
Q 3425 -63 2406 -63 
Q 1472 -63 901 551 
Q 331 1166 331 2028 
Q 331 2541 523 2962 
Q 716 3384 1036 3650 
Q 1356 3916 1753 4064 
Q 2150 4213 2566 4213 
Q 2913 4213 3277 4142 
Q 3641 4072 3834 3997 
L 4025 3922 
L 4038 3903 
Q 3934 3469 3909 3128 
L 3847 3122 
Q 3628 3488 3267 3698 
Q 2906 3909 2478 3909 
Q 1819 3909 1405 3417 
Q 991 2925 991 2094 
Q 991 1763 1078 1444 
Q 1166 1125 1341 847 
Q 1516 569 1830 400 
Q 2144 231 2553 231 
Q 3238 231 3494 475 
L 3494 750 
z
" transform="scale(0.015625)"/>
       <path id="LinBiolinum-42" d="M 1216 3578 
L 1216 2375 
L 1716 2375 
Q 2144 2375 2378 2534 
Q 2613 2694 2613 3078 
Q 2613 3519 2372 3695 
Q 2131 3872 1797 3872 
Q 1425 3872 1320 3811 
Q 1216 3750 1216 3578 
z
M 1216 2100 
L 1216 563 
Q 1216 403 1359 329 
Q 1503 256 1838 256 
Q 2472 256 2692 464 
Q 2913 672 2913 1056 
Q 2913 1509 2631 1804 
Q 2350 2100 1813 2100 
L 1216 2100 
z
M 941 4128 
Q 1113 4128 1381 4137 
Q 1650 4147 1753 4147 
Q 2094 4147 2356 4083 
Q 2619 4019 2769 3923 
Q 2919 3828 3011 3690 
Q 3103 3553 3136 3425 
Q 3169 3297 3169 3156 
Q 3169 2900 2998 2662 
Q 2828 2425 2572 2303 
Q 3544 2022 3547 1178 
Q 3547 953 3472 754 
Q 3397 556 3231 373 
Q 3066 191 2739 86 
Q 2413 -19 1959 -19 
Q 1653 -19 1386 -9 
Q 1119 0 941 0 
L 609 -19 
L 603 0 
Q 666 434 666 1281 
L 666 2847 
Q 666 3672 603 4128 
L 616 4147 
Q 722 4128 941 4128 
z
" transform="scale(0.015625)"/>
       <path id="LinBiolinum-4d" d="M 1234 4238 
L 1409 4238 
Q 1581 3884 1781 3421 
Q 1981 2959 2131 2604 
Q 2281 2250 2487 1803 
Q 2694 1356 2897 984 
L 4550 4238 
L 4691 4238 
Q 4984 1691 5228 -19 
Q 5131 0 4891 0 
Q 4672 0 4575 -19 
Q 4406 2016 4284 3025 
L 4263 3028 
Q 3425 1478 2778 0 
L 2656 0 
Q 2550 225 2433 494 
Q 2316 763 2219 998 
Q 2122 1234 2006 1507 
Q 1891 1781 1787 2022 
Q 1684 2263 1559 2534 
Q 1434 2806 1313 3047 
L 1284 3047 
Q 1219 2634 1123 2011 
Q 1028 1388 942 820 
Q 856 253 813 -19 
Q 741 0 622 0 
Q 481 0 409 -19 
Q 928 2478 1234 4238 
z
" transform="scale(0.015625)"/>
       <path id="LinBiolinum-57" d="M 4122 844 
Q 4141 888 4278 1202 
Q 4416 1516 4452 1603 
Q 4488 1691 4613 1981 
Q 4738 2272 4788 2397 
Q 4838 2522 4941 2772 
Q 5044 3022 5098 3169 
Q 5153 3316 5226 3511 
Q 5300 3706 5344 3859 
Q 5388 4013 5428 4147 
Q 5506 4128 5747 4128 
Q 5894 4128 5972 4147 
Q 4731 1422 4084 -63 
L 3903 -63 
Q 3528 991 3063 2250 
L 2034 -63 
L 1856 -63 
Q 1644 444 1241 1437 
Q 838 2431 541 3145 
Q 244 3859 103 4147 
Q 213 4128 488 4128 
Q 700 4128 806 4147 
Q 1184 2816 2069 788 
L 2081 788 
Q 2719 2269 2894 2700 
Q 2772 3025 2670 3295 
Q 2569 3566 2483 3789 
Q 2397 4013 2344 4147 
Q 2453 4128 2725 4128 
Q 2969 4128 3078 4147 
Q 3250 3366 4109 844 
L 4122 844 
z
" transform="scale(0.015625)"/>
       <path id="LinBiolinum-68" d="M 1088 2253 
L 1100 2234 
Q 1594 2809 2209 2809 
Q 2631 2809 2817 2559 
Q 3003 2309 3003 1797 
Q 3003 1694 2995 1473 
Q 2988 1253 2988 1153 
Q 2988 409 3047 0 
L 3034 -19 
Q 2919 0 2733 0 
Q 2547 0 2431 -19 
L 2419 0 
Q 2475 391 2478 1153 
L 2478 1778 
Q 2478 2156 2375 2290 
Q 2272 2425 2016 2425 
Q 1825 2425 1569 2297 
Q 1313 2169 1088 1900 
L 1088 1153 
Q 1088 444 1147 0 
L 1131 -19 
Q 1016 0 831 0 
Q 647 0 531 -19 
L 519 0 
Q 575 416 575 1153 
L 575 3078 
Q 575 4000 519 4319 
L 531 4341 
Q 819 4359 1088 4469 
Q 1144 4469 1147 4403 
Q 1091 3666 1088 3206 
L 1088 2253 
z
" transform="scale(0.015625)"/>
       <path id="DejaVuSans-2212" d="M 678 2272 
L 4684 2272 
L 4684 1741 
L 678 1741 
L 678 2272 
z
" transform="scale(0.015625)"/>
       <path id="LinBiolinum-29" d="M 1638 1613 
Q 1638 756 1261 -12 
Q 884 -781 281 -1300 
L 134 -1184 
Q 1106 -91 1106 1613 
Q 1106 3303 134 4422 
L 281 4531 
Q 659 4206 931 3809 
Q 1203 3413 1334 3095 
Q 1466 2778 1542 2429 
Q 1619 2081 1628 1923 
Q 1638 1766 1638 1613 
z
" transform="scale(0.015625)"/>
      </defs>
      <use xlink:href="#LinBiolinum-50" transform="translate(0 0.684375)"/>
      <use xlink:href="#LinBiolinum-72" transform="translate(55.859375 0.684375)"/>
      <use xlink:href="#LinBiolinum-69" transform="translate(91.357422 0.684375)"/>
      <use xlink:href="#LinBiolinum-63" transform="translate(117.333984 0.684375)"/>
      <use xlink:href="#LinBiolinum-65" transform="translate(160.205078 0.684375)"/>
      <use xlink:href="#LinBiolinum-20" transform="translate(205.46875 0.684375)"/>
      <use xlink:href="#LinBiolinum-28" transform="translate(230.46875 0.684375)"/>
      <use xlink:href="#LinBiolinum-47" transform="translate(260.449219 0.684375)"/>
      <use xlink:href="#LinBiolinum-42" transform="translate(332.128906 0.684375)"/>
      <use xlink:href="#LinBiolinum-50" transform="translate(393.701172 0.684375)"/>
      <use xlink:href="#LinBiolinum-20" transform="translate(449.560547 0.684375)"/>
      <use xlink:href="#LinBiolinum-4d" transform="translate(474.560547 0.684375)"/>
      <use xlink:href="#LinBiolinum-57" transform="translate(563.134766 0.684375)"/>
      <use xlink:href="#LinBiolinum-68" transform="translate(658.203125 0.684375)"/>
      <use xlink:href="#DejaVuSans-2212" transform="translate(714.042969 38.965625) scale(0.7)"/>
      <use xlink:href="#DejaVuSans-31" transform="translate(772.695312 38.965625) scale(0.7)"/>
      <use xlink:href="#LinBiolinum-29" transform="translate(819.96582 0.684375)"/>
     </g>
    </g>
   </g>
   <g id="line2d_32">
    <path d="M 48.508839 45.781084 
L 52.556091 48.01916 
L 56.603343 49.823656 
L 60.650595 48.35547 
L 64.697846 49.002812 
L 68.745098 46.645941 
L 72.79235 45.771139 
L 76.839602 45.705117 
L 80.886853 46.34432 
L 84.934105 46.621546 
L 88.981357 47.696725 
L 93.028609 47.318134 
L 97.07586 49.245089 
L 101.123112 49.395044 
L 105.170364 48.191942 
L 109.217615 44.43739 
L 113.264867 41.681889 
L 117.312119 38.434204 
L 121.359371 36.490018 
L 125.406622 37.749772 
L 129.453874 39.255016 
L 133.501126 41.228321 
L 137.548378 41.294774 
L 141.595629 44.778177 
" clip-path="url(#p63ac743612)" style="fill: none; stroke: #ff0000; stroke-width: 0.7; stroke-linecap: square"/>
   </g>
   <g id="line2d_33">
    <path d="M 48.508839 46.345363 
L 52.556091 47.485721 
L 56.603343 48.131114 
L 60.650595 47.631298 
L 64.697846 46.539466 
L 68.745098 44.113173 
L 72.79235 41.832459 
L 76.839602 42.439032 
L 80.886853 44.088909 
L 84.934105 45.496159 
L 88.981357 46.636517 
L 93.028609 47.170302 
L 97.07586 48.213608 
L 101.123112 47.607035 
L 105.170364 46.879148 
L 109.217615 45.059428 
L 113.264867 42.83937 
L 117.312119 40.206842 
L 121.359371 39.964212 
L 125.406622 41.080307 
L 129.453874 43.118393 
L 133.501126 45.823709 
L 137.548378 46.515203 
L 141.595629 48.941496 
" clip-path="url(#p63ac743612)" style="fill: none; stroke-dasharray: 2.59,1.12; stroke-dashoffset: 0; stroke: #0000ff; stroke-width: 0.7"/>
   </g>
   <g id="patch_3">
    <path d="M 43.8545 68.496204 
L 43.8545 23.685 
" style="fill: none; stroke: #000000; stroke-width: 0.8; stroke-linejoin: miter; stroke-linecap: square"/>
   </g>
   <g id="patch_4">
    <path d="M 146.249969 68.496204 
L 146.249969 23.685 
" style="fill: none; stroke: #000000; stroke-width: 0.8; stroke-linejoin: miter; stroke-linecap: square"/>
   </g>
   <g id="patch_5">
    <path d="M 43.8545 68.496204 
L 146.249969 68.496204 
" style="fill: none; stroke: #000000; stroke-width: 0.8; stroke-linejoin: miter; stroke-linecap: square"/>
   </g>
   <g id="patch_6">
    <path d="M 43.8545 23.685 
L 146.249969 23.685 
" style="fill: none; stroke: #000000; stroke-width: 0.8; stroke-linejoin: miter; stroke-linecap: square"/>
   </g>
   <g id="text_10">
    <!-- 2023-08-17 -->
    <g transform="translate(75.513797 17.685) scale(0.09 -0.09)">
     <defs>
      <path id="LinBiolinum-32" d="M 1294 3541 
Q 988 3541 800 3391 
Q 741 3344 695 3284 
Q 650 3225 633 3195 
Q 616 3166 573 3066 
Q 531 2966 519 2938 
L 434 2944 
L 294 3384 
Q 381 3500 514 3608 
Q 647 3716 887 3809 
Q 1128 3903 1397 3903 
Q 1747 3903 2003 3772 
Q 2259 3641 2389 3408 
Q 2519 3175 2519 2872 
Q 2519 2406 2056 1778 
Q 1859 1513 1657 1281 
Q 1456 1050 1343 937 
Q 1231 825 1019 622 
Q 906 513 906 447 
Q 906 438 907 431 
Q 909 425 916 416 
Q 1091 428 1438 428 
Q 2031 428 2609 481 
Q 2578 353 2578 178 
Q 2578 103 2597 -31 
Q 1834 0 1484 0 
Q 1453 0 272 -31 
Q 206 75 209 219 
Q 213 266 219 300 
Q 231 313 440 508 
Q 650 703 764 817 
Q 878 931 1076 1134 
Q 1275 1338 1436 1534 
Q 1597 1731 1725 1925 
Q 1969 2291 1969 2784 
Q 1969 3109 1762 3325 
Q 1556 3541 1294 3541 
z
" transform="scale(0.015625)"/>
      <path id="LinBiolinum-30" d="M 1491 3653 
Q 800 3653 800 1838 
Q 800 1641 809 1450 
Q 819 1259 861 1017 
Q 903 775 973 601 
Q 1044 428 1169 306 
Q 1294 184 1466 184 
Q 1550 184 1636 217 
Q 1722 250 1847 394 
Q 1972 538 2034 781 
Q 2144 1178 2144 2028 
Q 2144 2638 2037 3028 
Q 1931 3419 1772 3553 
Q 1656 3653 1491 3653 
z
M 1459 -63 
Q 891 -63 570 484 
Q 250 1031 250 1850 
Q 250 2759 620 3331 
Q 991 3903 1491 3903 
Q 1856 3903 2100 3681 
Q 2694 3138 2694 1978 
Q 2694 1447 2572 1034 
Q 2450 622 2259 390 
Q 2069 159 1862 48 
Q 1656 -63 1459 -63 
z
" transform="scale(0.015625)"/>
      <path id="LinBiolinum-33" d="M 1338 184 
Q 1447 184 1572 223 
Q 1697 263 1840 352 
Q 1984 441 2079 636 
Q 2175 831 2175 1100 
Q 2175 1503 1925 1716 
Q 1675 1922 1300 1919 
Q 1109 1919 1031 1906 
L 1031 2188 
Q 1166 2169 1269 2169 
Q 1616 2169 1797 2350 
Q 2041 2581 2041 2975 
Q 2041 3269 1875 3461 
Q 1709 3653 1509 3653 
Q 1228 3653 1059 3522 
Q 891 3391 769 3109 
L 672 3116 
L 538 3525 
L 556 3547 
Q 966 3906 1569 3903 
Q 2038 3903 2317 3664 
Q 2597 3425 2597 3072 
Q 2597 2700 2361 2428 
Q 2125 2156 1844 2094 
L 1844 2059 
Q 2222 2028 2473 1775 
Q 2725 1522 2725 1153 
Q 2725 756 2483 467 
Q 2241 178 1933 57 
Q 1625 -63 1325 -63 
Q 738 -63 372 244 
L 353 263 
L 494 744 
L 588 750 
Q 678 566 714 497 
Q 750 428 836 336 
Q 922 244 1037 214 
Q 1153 184 1338 184 
z
" transform="scale(0.015625)"/>
      <path id="LinBiolinum-2d" d="M 1753 1509 
L 306 1509 
Q 209 1509 213 1619 
Q 213 1697 263 1776 
Q 313 1856 372 1856 
L 1838 1856 
Q 1928 1856 1925 1741 
Q 1925 1684 1867 1596 
Q 1809 1509 1753 1509 
z
" transform="scale(0.015625)"/>
      <path id="LinBiolinum-38" d="M 1503 3694 
Q 1228 3694 1068 3536 
Q 909 3378 909 3144 
Q 909 2741 1356 2444 
L 1556 2328 
Q 1747 2463 1911 2672 
Q 2075 2881 2075 3109 
Q 2075 3359 1936 3526 
Q 1797 3694 1503 3694 
z
M 2547 3103 
Q 2547 2956 2476 2815 
Q 2406 2675 2272 2550 
Q 2138 2425 2039 2348 
Q 1941 2272 1791 2175 
L 2181 1919 
Q 2738 1553 2741 1038 
Q 2741 634 2387 289 
Q 2034 -56 1447 -56 
Q 916 -56 583 201 
Q 250 459 250 934 
Q 250 1331 672 1703 
Q 878 1881 1119 2069 
L 991 2138 
Q 428 2463 428 3028 
Q 428 3400 742 3651 
Q 1056 3903 1544 3903 
Q 2013 3903 2280 3679 
Q 2547 3456 2547 3103 
z
M 1459 153 
Q 1747 153 1978 320 
Q 2209 488 2209 903 
Q 2209 1384 1644 1734 
L 1350 1919 
Q 747 1522 750 934 
Q 750 544 970 348 
Q 1191 153 1459 153 
z
" transform="scale(0.015625)"/>
      <path id="LinBiolinum-31" d="M 2088 1209 
Q 2088 494 2144 0 
L 2131 -19 
Q 1953 0 1825 0 
Q 1825 0 1528 -19 
L 1522 0 
Q 1572 416 1575 1209 
L 1575 2797 
Q 1575 3284 1459 3284 
Q 1388 3284 1125 3239 
Q 863 3194 728 3181 
L 691 3366 
Q 959 3450 1432 3648 
Q 1906 3847 2094 3903 
Q 2138 3903 2138 3872 
Q 2088 3513 2088 2834 
L 2088 1209 
z
" transform="scale(0.015625)"/>
      <path id="LinBiolinum-37" d="M 2209 3359 
Q 1050 3397 403 3303 
Q 434 3547 434 3616 
Q 434 3647 403 3884 
Q 722 3841 2194 3841 
Q 2413 3841 2606 3903 
L 2713 3841 
Q 2022 2150 1281 -56 
L 813 -84 
L 794 -44 
Q 1197 856 2209 3359 
z
" transform="scale(0.015625)"/>
     </defs>
     <use xlink:href="#LinBiolinum-32"/>
     <use xlink:href="#LinBiolinum-30" x="44.384766"/>
     <use xlink:href="#LinBiolinum-32" x="90.869141"/>
     <use xlink:href="#LinBiolinum-33" x="135.253906"/>
     <use xlink:href="#LinBiolinum-2d" x="181.738281"/>
     <use xlink:href="#LinBiolinum-30" x="214.990234"/>
     <use xlink:href="#LinBiolinum-38" x="261.474609"/>
     <use xlink:href="#LinBiolinum-2d" x="307.958984"/>
     <use xlink:href="#LinBiolinum-31" x="341.210938"/>
     <use xlink:href="#LinBiolinum-37" x="387.695312"/>
    </g>
   </g>
  </g>
  <g id="axes_2">
   <g id="patch_7">
    <path d="M 156.489516 68.496204 
L 258.884984 68.496204 
L 258.884984 23.685 
L 156.489516 23.685 
z
" style="fill: #ffffff"/>
   </g>
   <g id="matplotlib.axis_3">
    <g id="xtick_5">
     <g id="line2d_34">
      <path d="M 173.28561 68.496204 
L 173.28561 23.685 
" clip-path="url(#pd891b5d837)" style="fill: none; stroke-dasharray: 0.925,0.4; stroke-dashoffset: 0; stroke: #b0b0b0; stroke-width: 0.25"/>
     </g>
     <g id="line2d_35">
      <g>
       <use xlink:href="#mf5ae3c2076" x="173.28561" y="68.496204" style="stroke: #000000; stroke-width: 0.8"/>
      </g>
     </g>
     <g id="text_11">
      <!-- 03 -->
      <g transform="translate(168.83186 80.81511) scale(0.07 -0.07)">
       <use xlink:href="#DejaVuSans-30"/>
       <use xlink:href="#DejaVuSans-33" x="63.623047"/>
      </g>
     </g>
    </g>
    <g id="xtick_6">
     <g id="line2d_36">
      <path d="M 197.569121 68.496204 
L 197.569121 23.685 
" clip-path="url(#pd891b5d837)" style="fill: none; stroke-dasharray: 0.925,0.4; stroke-dashoffset: 0; stroke: #b0b0b0; stroke-width: 0.25"/>
     </g>
     <g id="line2d_37">
      <g>
       <use xlink:href="#mf5ae3c2076" x="197.569121" y="68.496204" style="stroke: #000000; stroke-width: 0.8"/>
      </g>
     </g>
     <g id="text_12">
      <!-- 09 -->
      <g transform="translate(193.115371 80.81511) scale(0.07 -0.07)">
       <use xlink:href="#DejaVuSans-30"/>
       <use xlink:href="#DejaVuSans-39" x="63.623047"/>
      </g>
     </g>
    </g>
    <g id="xtick_7">
     <g id="line2d_38">
      <path d="M 221.852631 68.496204 
L 221.852631 23.685 
" clip-path="url(#pd891b5d837)" style="fill: none; stroke-dasharray: 0.925,0.4; stroke-dashoffset: 0; stroke: #b0b0b0; stroke-width: 0.25"/>
     </g>
     <g id="line2d_39">
      <g>
       <use xlink:href="#mf5ae3c2076" x="221.852631" y="68.496204" style="stroke: #000000; stroke-width: 0.8"/>
      </g>
     </g>
     <g id="text_13">
      <!-- 15 -->
      <g transform="translate(217.398881 80.81511) scale(0.07 -0.07)">
       <use xlink:href="#DejaVuSans-31"/>
       <use xlink:href="#DejaVuSans-35" x="63.623047"/>
      </g>
     </g>
    </g>
    <g id="xtick_8">
     <g id="line2d_40">
      <path d="M 246.136141 68.496204 
L 246.136141 23.685 
" clip-path="url(#pd891b5d837)" style="fill: none; stroke-dasharray: 0.925,0.4; stroke-dashoffset: 0; stroke: #b0b0b0; stroke-width: 0.25"/>
     </g>
     <g id="line2d_41">
      <g>
       <use xlink:href="#mf5ae3c2076" x="246.136141" y="68.496204" style="stroke: #000000; stroke-width: 0.8"/>
      </g>
     </g>
     <g id="text_14">
      <!-- 21 -->
      <g transform="translate(241.682391 80.81511) scale(0.07 -0.07)">
       <use xlink:href="#DejaVuSans-32"/>
       <use xlink:href="#DejaVuSans-31" x="63.623047"/>
      </g>
     </g>
    </g>
   </g>
   <g id="matplotlib.axis_4">
    <g id="ytick_20">
     <g id="line2d_42">
      <path d="M 156.489516 64.955029 
L 258.884984 64.955029 
" clip-path="url(#pd891b5d837)" style="fill: none; stroke-dasharray: 0.925,0.4; stroke-dashoffset: 0; stroke: #b0b0b0; stroke-width: 0.25"/>
     </g>
     <g id="line2d_43">
      <g>
       <use xlink:href="#mfda4aba477" x="156.489516" y="64.955029" style="stroke: #000000; stroke-width: 0.8"/>
      </g>
     </g>
    </g>
    <g id="ytick_21">
     <g id="line2d_44">
      <path d="M 156.489516 52.823565 
L 258.884984 52.823565 
" clip-path="url(#pd891b5d837)" style="fill: none; stroke-dasharray: 0.925,0.4; stroke-dashoffset: 0; stroke: #b0b0b0; stroke-width: 0.25"/>
     </g>
     <g id="line2d_45">
      <g>
       <use xlink:href="#mfda4aba477" x="156.489516" y="52.823565" style="stroke: #000000; stroke-width: 0.8"/>
      </g>
     </g>
    </g>
    <g id="ytick_22">
     <g id="line2d_46">
      <path d="M 156.489516 40.6921 
L 258.884984 40.6921 
" clip-path="url(#pd891b5d837)" style="fill: none; stroke-dasharray: 0.925,0.4; stroke-dashoffset: 0; stroke: #b0b0b0; stroke-width: 0.25"/>
     </g>
     <g id="line2d_47">
      <g>
       <use xlink:href="#mfda4aba477" x="156.489516" y="40.6921" style="stroke: #000000; stroke-width: 0.8"/>
      </g>
     </g>
    </g>
    <g id="ytick_23">
     <g id="line2d_48">
      <path d="M 156.489516 28.560636 
L 258.884984 28.560636 
" clip-path="url(#pd891b5d837)" style="fill: none; stroke-dasharray: 0.925,0.4; stroke-dashoffset: 0; stroke: #b0b0b0; stroke-width: 0.25"/>
     </g>
     <g id="line2d_49">
      <g>
       <use xlink:href="#mfda4aba477" x="156.489516" y="28.560636" style="stroke: #000000; stroke-width: 0.8"/>
      </g>
     </g>
    </g>
    <g id="ytick_24">
     <g id="line2d_50">
      <g>
       <use xlink:href="#m125a8ea00f" x="156.489516" y="67.381322" style="stroke: #000000; stroke-width: 0.6"/>
      </g>
     </g>
    </g>
    <g id="ytick_25">
     <g id="line2d_51">
      <g>
       <use xlink:href="#m125a8ea00f" x="156.489516" y="62.528736" style="stroke: #000000; stroke-width: 0.6"/>
      </g>
     </g>
    </g>
    <g id="ytick_26">
     <g id="line2d_52">
      <g>
       <use xlink:href="#m125a8ea00f" x="156.489516" y="60.102443" style="stroke: #000000; stroke-width: 0.6"/>
      </g>
     </g>
    </g>
    <g id="ytick_27">
     <g id="line2d_53">
      <g>
       <use xlink:href="#m125a8ea00f" x="156.489516" y="57.676151" style="stroke: #000000; stroke-width: 0.6"/>
      </g>
     </g>
    </g>
    <g id="ytick_28">
     <g id="line2d_54">
      <g>
       <use xlink:href="#m125a8ea00f" x="156.489516" y="55.249858" style="stroke: #000000; stroke-width: 0.6"/>
      </g>
     </g>
    </g>
    <g id="ytick_29">
     <g id="line2d_55">
      <g>
       <use xlink:href="#m125a8ea00f" x="156.489516" y="50.397272" style="stroke: #000000; stroke-width: 0.6"/>
      </g>
     </g>
    </g>
    <g id="ytick_30">
     <g id="line2d_56">
      <g>
       <use xlink:href="#m125a8ea00f" x="156.489516" y="47.970979" style="stroke: #000000; stroke-width: 0.6"/>
      </g>
     </g>
    </g>
    <g id="ytick_31">
     <g id="line2d_57">
      <g>
       <use xlink:href="#m125a8ea00f" x="156.489516" y="45.544686" style="stroke: #000000; stroke-width: 0.6"/>
      </g>
     </g>
    </g>
    <g id="ytick_32">
     <g id="line2d_58">
      <g>
       <use xlink:href="#m125a8ea00f" x="156.489516" y="43.118393" style="stroke: #000000; stroke-width: 0.6"/>
      </g>
     </g>
    </g>
    <g id="ytick_33">
     <g id="line2d_59">
      <g>
       <use xlink:href="#m125a8ea00f" x="156.489516" y="38.265807" style="stroke: #000000; stroke-width: 0.6"/>
      </g>
     </g>
    </g>
    <g id="ytick_34">
     <g id="line2d_60">
      <g>
       <use xlink:href="#m125a8ea00f" x="156.489516" y="35.839514" style="stroke: #000000; stroke-width: 0.6"/>
      </g>
     </g>
    </g>
    <g id="ytick_35">
     <g id="line2d_61">
      <g>
       <use xlink:href="#m125a8ea00f" x="156.489516" y="33.413222" style="stroke: #000000; stroke-width: 0.6"/>
      </g>
     </g>
    </g>
    <g id="ytick_36">
     <g id="line2d_62">
      <g>
       <use xlink:href="#m125a8ea00f" x="156.489516" y="30.986929" style="stroke: #000000; stroke-width: 0.6"/>
      </g>
     </g>
    </g>
    <g id="ytick_37">
     <g id="line2d_63">
      <g>
       <use xlink:href="#m125a8ea00f" x="156.489516" y="26.134343" style="stroke: #000000; stroke-width: 0.6"/>
      </g>
     </g>
    </g>
    <g id="ytick_38">
     <g id="line2d_64">
      <g>
       <use xlink:href="#m125a8ea00f" x="156.489516" y="23.70805" style="stroke: #000000; stroke-width: 0.6"/>
      </g>
     </g>
    </g>
   </g>
   <g id="line2d_65">
    <path d="M 161.143855 34.766413 
L 165.191107 35.957723 
L 169.238359 38.0533 
L 173.28561 38.187087 
L 177.332862 37.599756 
L 181.380114 35.131724 
L 185.427365 32.206096 
L 189.474617 29.374595 
L 193.521869 28.492483 
L 197.569121 29.489113 
L 201.616372 32.229041 
L 205.663624 32.839374 
L 209.710876 33.341613 
L 213.758128 33.582581 
L 217.805379 33.616476 
L 221.852631 33.871094 
L 225.899883 30.286827 
L 229.947135 26.264364 
L 233.994386 25.787788 
L 238.041638 28.943279 
L 242.08889 34.522049 
L 246.136141 35.387746 
L 250.183393 37.211699 
L 254.230645 37.399973 
" clip-path="url(#pd891b5d837)" style="fill: none; stroke: #ff0000; stroke-width: 0.7; stroke-linecap: square"/>
   </g>
   <g id="line2d_66">
    <path d="M 161.143855 35.475571 
L 165.191107 35.718199 
L 169.238359 35.839514 
L 173.28561 35.839514 
L 177.332862 35.815251 
L 181.380114 34.092583 
L 185.427365 29.409839 
L 189.474617 27.226174 
L 193.521869 27.638644 
L 197.569121 29.506891 
L 201.616372 32.175812 
L 205.663624 34.96605 
L 209.710876 36.421824 
L 213.758128 36.227721 
L 217.805379 35.475571 
L 221.852631 32.952227 
L 225.899883 30.064937 
L 229.947135 26.643864 
L 233.994386 25.721873 
L 238.041638 28.014719 
L 242.08889 31.472187 
L 246.136141 33.437485 
L 250.183393 36.761506 
L 254.230645 34.626368 
" clip-path="url(#pd891b5d837)" style="fill: none; stroke-dasharray: 2.59,1.12; stroke-dashoffset: 0; stroke: #0000ff; stroke-width: 0.7"/>
   </g>
   <g id="patch_8">
    <path d="M 156.489516 68.496204 
L 156.489516 23.685 
" style="fill: none; stroke: #000000; stroke-width: 0.8; stroke-linejoin: miter; stroke-linecap: square"/>
   </g>
   <g id="patch_9">
    <path d="M 258.884984 68.496204 
L 258.884984 23.685 
" style="fill: none; stroke: #000000; stroke-width: 0.8; stroke-linejoin: miter; stroke-linecap: square"/>
   </g>
   <g id="patch_10">
    <path d="M 156.489516 68.496204 
L 258.884984 68.496204 
" style="fill: none; stroke: #000000; stroke-width: 0.8; stroke-linejoin: miter; stroke-linecap: square"/>
   </g>
   <g id="patch_11">
    <path d="M 156.489516 23.685 
L 258.884984 23.685 
" style="fill: none; stroke: #000000; stroke-width: 0.8; stroke-linejoin: miter; stroke-linecap: square"/>
   </g>
   <g id="text_15">
    <!-- 2023-02-21 -->
    <g transform="translate(188.33725 17.685) scale(0.09 -0.09)">
     <use xlink:href="#LinBiolinum-32"/>
     <use xlink:href="#LinBiolinum-30" x="44.384766"/>
     <use xlink:href="#LinBiolinum-32" x="90.869141"/>
     <use xlink:href="#LinBiolinum-33" x="135.253906"/>
     <use xlink:href="#LinBiolinum-2d" x="181.738281"/>
     <use xlink:href="#LinBiolinum-30" x="214.990234"/>
     <use xlink:href="#LinBiolinum-32" x="261.474609"/>
     <use xlink:href="#LinBiolinum-2d" x="305.859375"/>
     <use xlink:href="#LinBiolinum-32" x="339.111328"/>
     <use xlink:href="#LinBiolinum-31" x="383.496094"/>
    </g>
   </g>
  </g>
  <g id="axes_3">
   <g id="patch_12">
    <path d="M 269.124531 68.496204 
L 371.52 68.496204 
L 371.52 23.685 
L 269.124531 23.685 
z
" style="fill: #ffffff"/>
   </g>
   <g id="matplotlib.axis_5">
    <g id="xtick_9">
     <g id="line2d_67">
      <path d="M 285.920626 68.496204 
L 285.920626 23.685 
" clip-path="url(#p9e4a99af33)" style="fill: none; stroke-dasharray: 0.925,0.4; stroke-dashoffset: 0; stroke: #b0b0b0; stroke-width: 0.25"/>
     </g>
     <g id="line2d_68">
      <g>
       <use xlink:href="#mf5ae3c2076" x="285.920626" y="68.496204" style="stroke: #000000; stroke-width: 0.8"/>
      </g>
     </g>
     <g id="text_16">
      <!-- 03 -->
      <g transform="translate(281.466876 80.81511) scale(0.07 -0.07)">
       <use xlink:href="#DejaVuSans-30"/>
       <use xlink:href="#DejaVuSans-33" x="63.623047"/>
      </g>
     </g>
    </g>
    <g id="xtick_10">
     <g id="line2d_69">
      <path d="M 310.204136 68.496204 
L 310.204136 23.685 
" clip-path="url(#p9e4a99af33)" style="fill: none; stroke-dasharray: 0.925,0.4; stroke-dashoffset: 0; stroke: #b0b0b0; stroke-width: 0.25"/>
     </g>
     <g id="line2d_70">
      <g>
       <use xlink:href="#mf5ae3c2076" x="310.204136" y="68.496204" style="stroke: #000000; stroke-width: 0.8"/>
      </g>
     </g>
     <g id="text_17">
      <!-- 09 -->
      <g transform="translate(305.750386 80.81511) scale(0.07 -0.07)">
       <use xlink:href="#DejaVuSans-30"/>
       <use xlink:href="#DejaVuSans-39" x="63.623047"/>
      </g>
     </g>
    </g>
    <g id="xtick_11">
     <g id="line2d_71">
      <path d="M 334.487647 68.496204 
L 334.487647 23.685 
" clip-path="url(#p9e4a99af33)" style="fill: none; stroke-dasharray: 0.925,0.4; stroke-dashoffset: 0; stroke: #b0b0b0; stroke-width: 0.25"/>
     </g>
     <g id="line2d_72">
      <g>
       <use xlink:href="#mf5ae3c2076" x="334.487647" y="68.496204" style="stroke: #000000; stroke-width: 0.8"/>
      </g>
     </g>
     <g id="text_18">
      <!-- 15 -->
      <g transform="translate(330.033897 80.81511) scale(0.07 -0.07)">
       <use xlink:href="#DejaVuSans-31"/>
       <use xlink:href="#DejaVuSans-35" x="63.623047"/>
      </g>
     </g>
    </g>
    <g id="xtick_12">
     <g id="line2d_73">
      <path d="M 358.771157 68.496204 
L 358.771157 23.685 
" clip-path="url(#p9e4a99af33)" style="fill: none; stroke-dasharray: 0.925,0.4; stroke-dashoffset: 0; stroke: #b0b0b0; stroke-width: 0.25"/>
     </g>
     <g id="line2d_74">
      <g>
       <use xlink:href="#mf5ae3c2076" x="358.771157" y="68.496204" style="stroke: #000000; stroke-width: 0.8"/>
      </g>
     </g>
     <g id="text_19">
      <!-- 21 -->
      <g transform="translate(354.317407 80.81511) scale(0.07 -0.07)">
       <use xlink:href="#DejaVuSans-32"/>
       <use xlink:href="#DejaVuSans-31" x="63.623047"/>
      </g>
     </g>
    </g>
   </g>
   <g id="matplotlib.axis_6">
    <g id="ytick_39">
     <g id="line2d_75">
      <path d="M 269.124531 64.955029 
L 371.52 64.955029 
" clip-path="url(#p9e4a99af33)" style="fill: none; stroke-dasharray: 0.925,0.4; stroke-dashoffset: 0; stroke: #b0b0b0; stroke-width: 0.25"/>
     </g>
     <g id="line2d_76">
      <g>
       <use xlink:href="#mfda4aba477" x="269.124531" y="64.955029" style="stroke: #000000; stroke-width: 0.8"/>
      </g>
     </g>
    </g>
    <g id="ytick_40">
     <g id="line2d_77">
      <path d="M 269.124531 52.823565 
L 371.52 52.823565 
" clip-path="url(#p9e4a99af33)" style="fill: none; stroke-dasharray: 0.925,0.4; stroke-dashoffset: 0; stroke: #b0b0b0; stroke-width: 0.25"/>
     </g>
     <g id="line2d_78">
      <g>
       <use xlink:href="#mfda4aba477" x="269.124531" y="52.823565" style="stroke: #000000; stroke-width: 0.8"/>
      </g>
     </g>
    </g>
    <g id="ytick_41">
     <g id="line2d_79">
      <path d="M 269.124531 40.6921 
L 371.52 40.6921 
" clip-path="url(#p9e4a99af33)" style="fill: none; stroke-dasharray: 0.925,0.4; stroke-dashoffset: 0; stroke: #b0b0b0; stroke-width: 0.25"/>
     </g>
     <g id="line2d_80">
      <g>
       <use xlink:href="#mfda4aba477" x="269.124531" y="40.6921" style="stroke: #000000; stroke-width: 0.8"/>
      </g>
     </g>
    </g>
    <g id="ytick_42">
     <g id="line2d_81">
      <path d="M 269.124531 28.560636 
L 371.52 28.560636 
" clip-path="url(#p9e4a99af33)" style="fill: none; stroke-dasharray: 0.925,0.4; stroke-dashoffset: 0; stroke: #b0b0b0; stroke-width: 0.25"/>
     </g>
     <g id="line2d_82">
      <g>
       <use xlink:href="#mfda4aba477" x="269.124531" y="28.560636" style="stroke: #000000; stroke-width: 0.8"/>
      </g>
     </g>
    </g>
    <g id="ytick_43">
     <g id="line2d_83">
      <g>
       <use xlink:href="#m125a8ea00f" x="269.124531" y="67.381322" style="stroke: #000000; stroke-width: 0.6"/>
      </g>
     </g>
    </g>
    <g id="ytick_44">
     <g id="line2d_84">
      <g>
       <use xlink:href="#m125a8ea00f" x="269.124531" y="62.528736" style="stroke: #000000; stroke-width: 0.6"/>
      </g>
     </g>
    </g>
    <g id="ytick_45">
     <g id="line2d_85">
      <g>
       <use xlink:href="#m125a8ea00f" x="269.124531" y="60.102443" style="stroke: #000000; stroke-width: 0.6"/>
      </g>
     </g>
    </g>
    <g id="ytick_46">
     <g id="line2d_86">
      <g>
       <use xlink:href="#m125a8ea00f" x="269.124531" y="57.676151" style="stroke: #000000; stroke-width: 0.6"/>
      </g>
     </g>
    </g>
    <g id="ytick_47">
     <g id="line2d_87">
      <g>
       <use xlink:href="#m125a8ea00f" x="269.124531" y="55.249858" style="stroke: #000000; stroke-width: 0.6"/>
      </g>
     </g>
    </g>
    <g id="ytick_48">
     <g id="line2d_88">
      <g>
       <use xlink:href="#m125a8ea00f" x="269.124531" y="50.397272" style="stroke: #000000; stroke-width: 0.6"/>
      </g>
     </g>
    </g>
    <g id="ytick_49">
     <g id="line2d_89">
      <g>
       <use xlink:href="#m125a8ea00f" x="269.124531" y="47.970979" style="stroke: #000000; stroke-width: 0.6"/>
      </g>
     </g>
    </g>
    <g id="ytick_50">
     <g id="line2d_90">
      <g>
       <use xlink:href="#m125a8ea00f" x="269.124531" y="45.544686" style="stroke: #000000; stroke-width: 0.6"/>
      </g>
     </g>
    </g>
    <g id="ytick_51">
     <g id="line2d_91">
      <g>
       <use xlink:href="#m125a8ea00f" x="269.124531" y="43.118393" style="stroke: #000000; stroke-width: 0.6"/>
      </g>
     </g>
    </g>
    <g id="ytick_52">
     <g id="line2d_92">
      <g>
       <use xlink:href="#m125a8ea00f" x="269.124531" y="38.265807" style="stroke: #000000; stroke-width: 0.6"/>
      </g>
     </g>
    </g>
    <g id="ytick_53">
     <g id="line2d_93">
      <g>
       <use xlink:href="#m125a8ea00f" x="269.124531" y="35.839514" style="stroke: #000000; stroke-width: 0.6"/>
      </g>
     </g>
    </g>
    <g id="ytick_54">
     <g id="line2d_94">
      <g>
       <use xlink:href="#m125a8ea00f" x="269.124531" y="33.413222" style="stroke: #000000; stroke-width: 0.6"/>
      </g>
     </g>
    </g>
    <g id="ytick_55">
     <g id="line2d_95">
      <g>
       <use xlink:href="#m125a8ea00f" x="269.124531" y="30.986929" style="stroke: #000000; stroke-width: 0.6"/>
      </g>
     </g>
    </g>
    <g id="ytick_56">
     <g id="line2d_96">
      <g>
       <use xlink:href="#m125a8ea00f" x="269.124531" y="26.134343" style="stroke: #000000; stroke-width: 0.6"/>
      </g>
     </g>
    </g>
    <g id="ytick_57">
     <g id="line2d_97">
      <g>
       <use xlink:href="#m125a8ea00f" x="269.124531" y="23.70805" style="stroke: #000000; stroke-width: 0.6"/>
      </g>
     </g>
    </g>
   </g>
   <g id="line2d_98">
    <path d="M 273.778871 46.191976 
L 277.826122 47.587762 
L 281.873374 48.222116 
L 285.920626 46.876591 
L 289.967878 46.577879 
L 294.015129 44.289715 
L 298.062381 42.914969 
L 302.109633 43.885326 
L 306.156885 46.241241 
L 310.204136 48.585398 
L 314.251388 49.911575 
L 318.29864 49.86561 
L 322.345891 52.240576 
L 326.393143 52.407621 
L 330.440395 51.471559 
L 334.487647 47.313286 
L 338.534898 45.030714 
L 342.58215 44.118706 
L 346.629402 41.772764 
L 350.676654 42.15654 
L 354.723905 41.815305 
L 358.771157 44.484108 
L 362.818409 44.015514 
L 366.865661 46.834151 
" clip-path="url(#p9e4a99af33)" style="fill: none; stroke: #ff0000; stroke-width: 0.7; stroke-linecap: square"/>
   </g>
   <g id="line2d_99">
    <path d="M 273.778871 48.480501 
L 277.826122 49.451018 
L 281.873374 49.742173 
L 285.920626 49.329703 
L 289.967878 47.473589 
L 294.015129 45.685411 
L 298.062381 43.773493 
L 302.109633 43.603651 
L 306.156885 45.544686 
L 310.204136 48.553289 
L 314.251388 49.523806 
L 318.29864 49.54807 
L 322.345891 49.329703 
L 326.393143 48.820181 
L 330.440395 48.456237 
L 334.487647 47.485721 
L 338.534898 45.447634 
L 342.58215 41.177358 
L 346.629402 39.236324 
L 350.676654 39.721584 
L 354.723905 41.905247 
L 358.771157 44.768273 
L 362.818409 44.792534 
L 366.865661 47.000462 
" clip-path="url(#p9e4a99af33)" style="fill: none; stroke-dasharray: 2.59,1.12; stroke-dashoffset: 0; stroke: #0000ff; stroke-width: 0.7"/>
   </g>
   <g id="patch_13">
    <path d="M 269.124531 68.496204 
L 269.124531 23.685 
" style="fill: none; stroke: #000000; stroke-width: 0.8; stroke-linejoin: miter; stroke-linecap: square"/>
   </g>
   <g id="patch_14">
    <path d="M 371.52 68.496204 
L 371.52 23.685 
" style="fill: none; stroke: #000000; stroke-width: 0.8; stroke-linejoin: miter; stroke-linecap: square"/>
   </g>
   <g id="patch_15">
    <path d="M 269.124531 68.496204 
L 371.52 68.496204 
" style="fill: none; stroke: #000000; stroke-width: 0.8; stroke-linejoin: miter; stroke-linecap: square"/>
   </g>
   <g id="patch_16">
    <path d="M 269.124531 23.685 
L 371.52 23.685 
" style="fill: none; stroke: #000000; stroke-width: 0.8; stroke-linejoin: miter; stroke-linecap: square"/>
   </g>
   <g id="text_20">
    <!-- 2024-07-17 -->
    <g transform="translate(300.783828 17.685) scale(0.09 -0.09)">
     <defs>
      <path id="LinBiolinum-34" d="M 1831 947 
L 513 947 
Q 134 947 134 1075 
Q 134 1178 219 1325 
Q 469 1747 1019 2592 
Q 1569 3438 1863 3841 
L 1888 3866 
Q 2003 3841 2106 3841 
Q 2156 3841 2242 3853 
Q 2328 3866 2356 3866 
Q 2369 3866 2369 3841 
Q 2331 3488 2328 2894 
L 2328 1269 
L 2741 1269 
Q 2838 1269 2834 1166 
Q 2834 1109 2773 1028 
Q 2713 947 2650 947 
L 2328 947 
Q 2328 556 2369 0 
Q 2369 -19 2356 -19 
Q 2331 -19 2237 -9 
Q 2144 0 2088 0 
L 1784 -19 
L 1778 0 
Q 1831 434 1831 947 
z
M 1831 3278 
L 531 1269 
L 1831 1269 
L 1831 3278 
z
" transform="scale(0.015625)"/>
     </defs>
     <use xlink:href="#LinBiolinum-32"/>
     <use xlink:href="#LinBiolinum-30" x="44.384766"/>
     <use xlink:href="#LinBiolinum-32" x="90.869141"/>
     <use xlink:href="#LinBiolinum-34" x="135.253906"/>
     <use xlink:href="#LinBiolinum-2d" x="181.738281"/>
     <use xlink:href="#LinBiolinum-30" x="214.990234"/>
     <use xlink:href="#LinBiolinum-37" x="261.474609"/>
     <use xlink:href="#LinBiolinum-2d" x="307.958984"/>
     <use xlink:href="#LinBiolinum-31" x="341.210938"/>
     <use xlink:href="#LinBiolinum-37" x="387.695312"/>
    </g>
   </g>
  </g>
  <g id="axes_4">
   <g id="patch_17">
    <path d="M 43.8545 144.67525 
L 146.249969 144.67525 
L 146.249969 99.864046 
L 43.8545 99.864046 
z
" style="fill: #ffffff"/>
   </g>
   <g id="matplotlib.axis_7">
    <g id="xtick_13">
     <g id="line2d_100">
      <path d="M 60.650595 144.67525 
L 60.650595 99.864046 
" clip-path="url(#p1a61fca3f5)" style="fill: none; stroke-dasharray: 0.925,0.4; stroke-dashoffset: 0; stroke: #b0b0b0; stroke-width: 0.25"/>
     </g>
     <g id="line2d_101">
      <g>
       <use xlink:href="#mf5ae3c2076" x="60.650595" y="144.67525" style="stroke: #000000; stroke-width: 0.8"/>
      </g>
     </g>
     <g id="text_21">
      <!-- 03 -->
      <g transform="translate(56.196845 156.994156) scale(0.07 -0.07)">
       <use xlink:href="#DejaVuSans-30"/>
       <use xlink:href="#DejaVuSans-33" x="63.623047"/>
      </g>
     </g>
    </g>
    <g id="xtick_14">
     <g id="line2d_102">
      <path d="M 84.934105 144.67525 
L 84.934105 99.864046 
" clip-path="url(#p1a61fca3f5)" style="fill: none; stroke-dasharray: 0.925,0.4; stroke-dashoffset: 0; stroke: #b0b0b0; stroke-width: 0.25"/>
     </g>
     <g id="line2d_103">
      <g>
       <use xlink:href="#mf5ae3c2076" x="84.934105" y="144.67525" style="stroke: #000000; stroke-width: 0.8"/>
      </g>
     </g>
     <g id="text_22">
      <!-- 09 -->
      <g transform="translate(80.480355 156.994156) scale(0.07 -0.07)">
       <use xlink:href="#DejaVuSans-30"/>
       <use xlink:href="#DejaVuSans-39" x="63.623047"/>
      </g>
     </g>
    </g>
    <g id="xtick_15">
     <g id="line2d_104">
      <path d="M 109.217615 144.67525 
L 109.217615 99.864046 
" clip-path="url(#p1a61fca3f5)" style="fill: none; stroke-dasharray: 0.925,0.4; stroke-dashoffset: 0; stroke: #b0b0b0; stroke-width: 0.25"/>
     </g>
     <g id="line2d_105">
      <g>
       <use xlink:href="#mf5ae3c2076" x="109.217615" y="144.67525" style="stroke: #000000; stroke-width: 0.8"/>
      </g>
     </g>
     <g id="text_23">
      <!-- 15 -->
      <g transform="translate(104.763865 156.994156) scale(0.07 -0.07)">
       <use xlink:href="#DejaVuSans-31"/>
       <use xlink:href="#DejaVuSans-35" x="63.623047"/>
      </g>
     </g>
    </g>
    <g id="xtick_16">
     <g id="line2d_106">
      <path d="M 133.501126 144.67525 
L 133.501126 99.864046 
" clip-path="url(#p1a61fca3f5)" style="fill: none; stroke-dasharray: 0.925,0.4; stroke-dashoffset: 0; stroke: #b0b0b0; stroke-width: 0.25"/>
     </g>
     <g id="line2d_107">
      <g>
       <use xlink:href="#mf5ae3c2076" x="133.501126" y="144.67525" style="stroke: #000000; stroke-width: 0.8"/>
      </g>
     </g>
     <g id="text_24">
      <!-- 21 -->
      <g transform="translate(129.047376 156.994156) scale(0.07 -0.07)">
       <use xlink:href="#DejaVuSans-32"/>
       <use xlink:href="#DejaVuSans-31" x="63.623047"/>
      </g>
     </g>
    </g>
    <g id="text_25">
     <!-- Hour -->
     <g transform="translate(86.583484 168.036188) scale(0.08 -0.08)">
      <defs>
       <path id="LinBiolinum-48" d="M 3431 2847 
Q 3431 3672 3366 4128 
L 3378 4147 
Q 3494 4128 3706 4128 
Q 3925 4128 4038 4147 
L 4044 4128 
Q 3981 3706 3981 2847 
L 3981 1281 
Q 3981 456 4044 0 
L 4031 -19 
Q 3916 0 3706 0 
Q 3488 0 3372 -19 
L 3366 0 
Q 3428 434 3431 1281 
L 3431 2053 
L 1216 2053 
L 1216 1281 
Q 1216 456 1281 0 
L 1269 -19 
Q 1153 0 941 0 
Q 722 0 609 -19 
L 603 0 
Q 666 434 666 1281 
L 666 2847 
Q 666 3672 603 4128 
L 616 4147 
Q 731 4128 941 4128 
Q 1159 4128 1275 4147 
L 1281 4128 
Q 1219 3706 1216 2847 
L 1216 2338 
L 3431 2338 
L 3431 2847 
z
" transform="scale(0.015625)"/>
       <path id="LinBiolinum-6f" d="M 244 1313 
Q 244 1991 620 2400 
Q 997 2809 1625 2809 
Q 2266 2809 2611 2421 
Q 2956 2034 2956 1369 
Q 2956 728 2592 332 
Q 2228 -63 1600 -63 
Q 978 -63 611 328 
Q 244 719 244 1313 
z
M 1581 2553 
Q 1300 2553 1117 2381 
Q 934 2209 870 1968 
Q 806 1728 806 1422 
Q 806 1134 870 878 
Q 934 622 1139 406 
Q 1344 191 1656 191 
Q 1975 191 2184 492 
Q 2394 794 2394 1253 
Q 2394 1900 2225 2226 
Q 2056 2553 1581 2553 
z
" transform="scale(0.015625)"/>
       <path id="LinBiolinum-75" d="M 2338 588 
Q 2159 313 1901 125 
Q 1644 -63 1369 -63 
Q 928 -63 729 192 
Q 531 447 531 825 
L 531 1594 
Q 531 2338 475 2747 
L 488 2766 
Q 603 2747 787 2747 
Q 972 2747 1088 2766 
L 1100 2747 
Q 1044 2363 1044 1594 
L 1044 959 
Q 1044 556 1156 425 
Q 1269 294 1472 294 
Q 1697 294 1942 495 
Q 2188 697 2350 966 
L 2350 1594 
Q 2350 2322 2291 2747 
L 2303 2766 
Q 2419 2747 2605 2747 
Q 2791 2747 2906 2766 
L 2919 2747 
Q 2863 2363 2859 1594 
L 2859 1228 
Q 2859 581 2969 0 
L 2956 -19 
Q 2828 0 2672 0 
Q 2597 0 2450 -19 
Q 2394 -19 2394 0 
L 2363 569 
L 2338 588 
z
" transform="scale(0.015625)"/>
      </defs>
      <use xlink:href="#LinBiolinum-48"/>
      <use xlink:href="#LinBiolinum-6f" x="72.558594"/>
      <use xlink:href="#LinBiolinum-75" x="122.558594"/>
      <use xlink:href="#LinBiolinum-72" x="176.220703"/>
     </g>
    </g>
   </g>
   <g id="matplotlib.axis_8">
    <g id="ytick_58">
     <g id="line2d_108">
      <path d="M 43.8545 141.134075 
L 146.249969 141.134075 
" clip-path="url(#p1a61fca3f5)" style="fill: none; stroke-dasharray: 0.925,0.4; stroke-dashoffset: 0; stroke: #b0b0b0; stroke-width: 0.25"/>
     </g>
     <g id="line2d_109">
      <g>
       <use xlink:href="#mfda4aba477" x="43.8545" y="141.134075" style="stroke: #000000; stroke-width: 0.8"/>
      </g>
     </g>
     <g id="text_26">
      <!-- 0 -->
      <g transform="translate(32.40075 143.793529) scale(0.07 -0.07)">
       <use xlink:href="#DejaVuSans-30"/>
      </g>
     </g>
    </g>
    <g id="ytick_59">
     <g id="line2d_110">
      <path d="M 43.8545 129.002611 
L 146.249969 129.002611 
" clip-path="url(#p1a61fca3f5)" style="fill: none; stroke-dasharray: 0.925,0.4; stroke-dashoffset: 0; stroke: #b0b0b0; stroke-width: 0.25"/>
     </g>
     <g id="line2d_111">
      <g>
       <use xlink:href="#mfda4aba477" x="43.8545" y="129.002611" style="stroke: #000000; stroke-width: 0.8"/>
      </g>
     </g>
     <g id="text_27">
      <!-- 5 -->
      <g transform="translate(32.40075 131.662064) scale(0.07 -0.07)">
       <use xlink:href="#DejaVuSans-35"/>
      </g>
     </g>
    </g>
    <g id="ytick_60">
     <g id="line2d_112">
      <path d="M 43.8545 116.871147 
L 146.249969 116.871147 
" clip-path="url(#p1a61fca3f5)" style="fill: none; stroke-dasharray: 0.925,0.4; stroke-dashoffset: 0; stroke: #b0b0b0; stroke-width: 0.25"/>
     </g>
     <g id="line2d_113">
      <g>
       <use xlink:href="#mfda4aba477" x="43.8545" y="116.871147" style="stroke: #000000; stroke-width: 0.8"/>
      </g>
     </g>
     <g id="text_28">
      <!-- 10 -->
      <g transform="translate(27.947 119.5306) scale(0.07 -0.07)">
       <use xlink:href="#DejaVuSans-31"/>
       <use xlink:href="#DejaVuSans-30" x="63.623047"/>
      </g>
     </g>
    </g>
    <g id="ytick_61">
     <g id="line2d_114">
      <path d="M 43.8545 104.739682 
L 146.249969 104.739682 
" clip-path="url(#p1a61fca3f5)" style="fill: none; stroke-dasharray: 0.925,0.4; stroke-dashoffset: 0; stroke: #b0b0b0; stroke-width: 0.25"/>
     </g>
     <g id="line2d_115">
      <g>
       <use xlink:href="#mfda4aba477" x="43.8545" y="104.739682" style="stroke: #000000; stroke-width: 0.8"/>
      </g>
     </g>
     <g id="text_29">
      <!-- 15 -->
      <g transform="translate(27.947 107.399135) scale(0.07 -0.07)">
       <use xlink:href="#DejaVuSans-31"/>
       <use xlink:href="#DejaVuSans-35" x="63.623047"/>
      </g>
     </g>
    </g>
    <g id="ytick_62">
     <g id="line2d_116">
      <g>
       <use xlink:href="#m125a8ea00f" x="43.8545" y="143.560368" style="stroke: #000000; stroke-width: 0.6"/>
      </g>
     </g>
    </g>
    <g id="ytick_63">
     <g id="line2d_117">
      <g>
       <use xlink:href="#m125a8ea00f" x="43.8545" y="138.707783" style="stroke: #000000; stroke-width: 0.6"/>
      </g>
     </g>
    </g>
    <g id="ytick_64">
     <g id="line2d_118">
      <g>
       <use xlink:href="#m125a8ea00f" x="43.8545" y="136.28149" style="stroke: #000000; stroke-width: 0.6"/>
      </g>
     </g>
    </g>
    <g id="ytick_65">
     <g id="line2d_119">
      <g>
       <use xlink:href="#m125a8ea00f" x="43.8545" y="133.855197" style="stroke: #000000; stroke-width: 0.6"/>
      </g>
     </g>
    </g>
    <g id="ytick_66">
     <g id="line2d_120">
      <g>
       <use xlink:href="#m125a8ea00f" x="43.8545" y="131.428904" style="stroke: #000000; stroke-width: 0.6"/>
      </g>
     </g>
    </g>
    <g id="ytick_67">
     <g id="line2d_121">
      <g>
       <use xlink:href="#m125a8ea00f" x="43.8545" y="126.576318" style="stroke: #000000; stroke-width: 0.6"/>
      </g>
     </g>
    </g>
    <g id="ytick_68">
     <g id="line2d_122">
      <g>
       <use xlink:href="#m125a8ea00f" x="43.8545" y="124.150025" style="stroke: #000000; stroke-width: 0.6"/>
      </g>
     </g>
    </g>
    <g id="ytick_69">
     <g id="line2d_123">
      <g>
       <use xlink:href="#m125a8ea00f" x="43.8545" y="121.723732" style="stroke: #000000; stroke-width: 0.6"/>
      </g>
     </g>
    </g>
    <g id="ytick_70">
     <g id="line2d_124">
      <g>
       <use xlink:href="#m125a8ea00f" x="43.8545" y="119.297439" style="stroke: #000000; stroke-width: 0.6"/>
      </g>
     </g>
    </g>
    <g id="ytick_71">
     <g id="line2d_125">
      <g>
       <use xlink:href="#m125a8ea00f" x="43.8545" y="114.444854" style="stroke: #000000; stroke-width: 0.6"/>
      </g>
     </g>
    </g>
    <g id="ytick_72">
     <g id="line2d_126">
      <g>
       <use xlink:href="#m125a8ea00f" x="43.8545" y="112.018561" style="stroke: #000000; stroke-width: 0.6"/>
      </g>
     </g>
    </g>
    <g id="ytick_73">
     <g id="line2d_127">
      <g>
       <use xlink:href="#m125a8ea00f" x="43.8545" y="109.592268" style="stroke: #000000; stroke-width: 0.6"/>
      </g>
     </g>
    </g>
    <g id="ytick_74">
     <g id="line2d_128">
      <g>
       <use xlink:href="#m125a8ea00f" x="43.8545" y="107.165975" style="stroke: #000000; stroke-width: 0.6"/>
      </g>
     </g>
    </g>
    <g id="ytick_75">
     <g id="line2d_129">
      <g>
       <use xlink:href="#m125a8ea00f" x="43.8545" y="102.313389" style="stroke: #000000; stroke-width: 0.6"/>
      </g>
     </g>
    </g>
    <g id="ytick_76">
     <g id="line2d_130">
      <g>
       <use xlink:href="#m125a8ea00f" x="43.8545" y="99.887096" style="stroke: #000000; stroke-width: 0.6"/>
      </g>
     </g>
    </g>
    <g id="text_30">
     <!-- Price (GBP MWh$^{-1}$) -->
     <g transform="translate(22.06825 156.269648) rotate(-90) scale(0.08 -0.08)">
      <use xlink:href="#LinBiolinum-50" transform="translate(0 0.684375)"/>
      <use xlink:href="#LinBiolinum-72" transform="translate(55.859375 0.684375)"/>
      <use xlink:href="#LinBiolinum-69" transform="translate(91.357422 0.684375)"/>
      <use xlink:href="#LinBiolinum-63" transform="translate(117.333984 0.684375)"/>
      <use xlink:href="#LinBiolinum-65" transform="translate(160.205078 0.684375)"/>
      <use xlink:href="#LinBiolinum-20" transform="translate(205.46875 0.684375)"/>
      <use xlink:href="#LinBiolinum-28" transform="translate(230.46875 0.684375)"/>
      <use xlink:href="#LinBiolinum-47" transform="translate(260.449219 0.684375)"/>
      <use xlink:href="#LinBiolinum-42" transform="translate(332.128906 0.684375)"/>
      <use xlink:href="#LinBiolinum-50" transform="translate(393.701172 0.684375)"/>
      <use xlink:href="#LinBiolinum-20" transform="translate(449.560547 0.684375)"/>
      <use xlink:href="#LinBiolinum-4d" transform="translate(474.560547 0.684375)"/>
      <use xlink:href="#LinBiolinum-57" transform="translate(563.134766 0.684375)"/>
      <use xlink:href="#LinBiolinum-68" transform="translate(658.203125 0.684375)"/>
      <use xlink:href="#DejaVuSans-2212" transform="translate(714.042969 38.965625) scale(0.7)"/>
      <use xlink:href="#DejaVuSans-31" transform="translate(772.695312 38.965625) scale(0.7)"/>
      <use xlink:href="#LinBiolinum-29" transform="translate(819.96582 0.684375)"/>
     </g>
    </g>
   </g>
   <g id="line2d_131">
    <path d="M 48.508839 120.16596 
L 52.556091 121.720349 
L 56.603343 123.496639 
L 60.650595 123.263071 
L 64.697846 124.026908 
L 68.745098 124.18391 
L 72.79235 125.041552 
L 76.839602 124.569968 
L 80.886853 124.027336 
L 84.934105 123.861032 
L 88.981357 124.223001 
L 93.028609 124.328123 
L 97.07586 126.354298 
L 101.123112 127.221801 
L 105.170364 127.020098 
L 109.217615 124.699565 
L 113.264867 122.863348 
L 117.312119 119.883278 
L 121.359371 118.238042 
L 125.406622 118.366051 
L 129.453874 119.272875 
L 133.501126 120.439435 
L 137.548378 120.354241 
L 141.595629 122.061422 
" clip-path="url(#p1a61fca3f5)" style="fill: none; stroke: #ff0000; stroke-width: 0.7; stroke-linecap: square"/>
   </g>
   <g id="line2d_132">
    <path d="M 48.508839 124.974965 
L 52.556091 125.581538 
L 56.603343 125.727116 
L 60.650595 125.533013 
L 64.697846 124.392654 
L 68.745098 122.330306 
L 72.79235 120.316483 
L 76.839602 120.656164 
L 80.886853 121.966361 
L 84.934105 124.150025 
L 88.981357 124.489706 
L 93.028609 124.756598 
L 97.07586 125.630064 
L 101.123112 125.727116 
L 105.170364 124.999228 
L 109.217615 123.737555 
L 113.264867 121.78439 
L 117.312119 119.054809 
L 121.359371 117.793138 
L 125.406622 119.879749 
L 129.453874 121.820784 
L 133.501126 123.422137 
L 137.548378 122.415225 
L 141.595629 122.815564 
" clip-path="url(#p1a61fca3f5)" style="fill: none; stroke-dasharray: 2.59,1.12; stroke-dashoffset: 0; stroke: #0000ff; stroke-width: 0.7"/>
   </g>
   <g id="patch_18">
    <path d="M 43.8545 144.67525 
L 43.8545 99.864046 
" style="fill: none; stroke: #000000; stroke-width: 0.8; stroke-linejoin: miter; stroke-linecap: square"/>
   </g>
   <g id="patch_19">
    <path d="M 146.249969 144.67525 
L 146.249969 99.864046 
" style="fill: none; stroke: #000000; stroke-width: 0.8; stroke-linejoin: miter; stroke-linecap: square"/>
   </g>
   <g id="patch_20">
    <path d="M 43.8545 144.67525 
L 146.249969 144.67525 
" style="fill: none; stroke: #000000; stroke-width: 0.8; stroke-linejoin: miter; stroke-linecap: square"/>
   </g>
   <g id="patch_21">
    <path d="M 43.8545 99.864046 
L 146.249969 99.864046 
" style="fill: none; stroke: #000000; stroke-width: 0.8; stroke-linejoin: miter; stroke-linecap: square"/>
   </g>
   <g id="text_31">
    <!-- 2024-05-16 -->
    <g transform="translate(75.513797 93.864046) scale(0.09 -0.09)">
     <defs>
      <path id="LinBiolinum-35" d="M 1294 -63 
Q 738 -63 325 294 
L 300 313 
L 441 825 
L 531 831 
Q 550 800 604 697 
Q 659 594 675 566 
Q 691 538 742 464 
Q 794 391 819 369 
Q 844 347 901 298 
Q 959 250 1014 237 
Q 1069 225 1142 208 
Q 1216 191 1306 191 
Q 1631 191 1832 450 
Q 2034 709 2034 1147 
Q 2034 1653 1829 1914 
Q 1625 2175 1300 2175 
Q 1000 2175 506 1978 
L 459 1994 
L 666 3878 
Q 1100 3841 1394 3841 
Q 1925 3841 2444 3903 
L 2491 3884 
L 2388 3450 
Q 2075 3413 1716 3413 
Q 1331 3413 903 3469 
L 769 2338 
Q 1031 2434 1466 2431 
Q 1984 2431 2290 2086 
Q 2597 1741 2597 1253 
Q 2597 684 2230 310 
Q 1863 -63 1294 -63 
z
" transform="scale(0.015625)"/>
      <path id="LinBiolinum-36" d="M 813 1772 
Q 806 1709 806 1538 
Q 806 1134 882 848 
Q 959 563 1093 425 
Q 1228 288 1356 230 
Q 1484 172 1631 172 
Q 2200 172 2203 1106 
Q 2203 1247 2173 1387 
Q 2144 1528 2073 1686 
Q 2003 1844 1847 1939 
Q 1691 2034 1459 2034 
Q 1069 2034 813 1772 
z
M 2559 3731 
Q 1850 3659 1434 3256 
Q 928 2763 825 1959 
Q 941 2100 1167 2195 
Q 1394 2291 1594 2291 
Q 1947 2291 2195 2159 
Q 2444 2028 2556 1829 
Q 2669 1631 2717 1465 
Q 2766 1300 2766 1153 
Q 2766 963 2705 766 
Q 2644 569 2516 376 
Q 2388 184 2141 64 
Q 1894 -56 1563 -56 
Q 1350 -56 1151 11 
Q 953 78 748 240 
Q 544 403 419 742 
Q 294 1081 294 1556 
Q 294 2569 978 3250 
Q 1297 3575 1665 3726 
Q 2034 3878 2541 3909 
L 2559 3731 
z
" transform="scale(0.015625)"/>
     </defs>
     <use xlink:href="#LinBiolinum-32"/>
     <use xlink:href="#LinBiolinum-30" x="44.384766"/>
     <use xlink:href="#LinBiolinum-32" x="90.869141"/>
     <use xlink:href="#LinBiolinum-34" x="135.253906"/>
     <use xlink:href="#LinBiolinum-2d" x="181.738281"/>
     <use xlink:href="#LinBiolinum-30" x="214.990234"/>
     <use xlink:href="#LinBiolinum-35" x="261.474609"/>
     <use xlink:href="#LinBiolinum-2d" x="307.958984"/>
     <use xlink:href="#LinBiolinum-31" x="341.210938"/>
     <use xlink:href="#LinBiolinum-36" x="387.695312"/>
    </g>
   </g>
  </g>
  <g id="axes_5">
   <g id="patch_22">
    <path d="M 156.489516 144.67525 
L 258.884984 144.67525 
L 258.884984 99.864046 
L 156.489516 99.864046 
z
" style="fill: #ffffff"/>
   </g>
   <g id="matplotlib.axis_9">
    <g id="xtick_17">
     <g id="line2d_133">
      <path d="M 173.28561 144.67525 
L 173.28561 99.864046 
" clip-path="url(#p44d6825642)" style="fill: none; stroke-dasharray: 0.925,0.4; stroke-dashoffset: 0; stroke: #b0b0b0; stroke-width: 0.25"/>
     </g>
     <g id="line2d_134">
      <g>
       <use xlink:href="#mf5ae3c2076" x="173.28561" y="144.67525" style="stroke: #000000; stroke-width: 0.8"/>
      </g>
     </g>
     <g id="text_32">
      <!-- 03 -->
      <g transform="translate(168.83186 156.994156) scale(0.07 -0.07)">
       <use xlink:href="#DejaVuSans-30"/>
       <use xlink:href="#DejaVuSans-33" x="63.623047"/>
      </g>
     </g>
    </g>
    <g id="xtick_18">
     <g id="line2d_135">
      <path d="M 197.569121 144.67525 
L 197.569121 99.864046 
" clip-path="url(#p44d6825642)" style="fill: none; stroke-dasharray: 0.925,0.4; stroke-dashoffset: 0; stroke: #b0b0b0; stroke-width: 0.25"/>
     </g>
     <g id="line2d_136">
      <g>
       <use xlink:href="#mf5ae3c2076" x="197.569121" y="144.67525" style="stroke: #000000; stroke-width: 0.8"/>
      </g>
     </g>
     <g id="text_33">
      <!-- 09 -->
      <g transform="translate(193.115371 156.994156) scale(0.07 -0.07)">
       <use xlink:href="#DejaVuSans-30"/>
       <use xlink:href="#DejaVuSans-39" x="63.623047"/>
      </g>
     </g>
    </g>
    <g id="xtick_19">
     <g id="line2d_137">
      <path d="M 221.852631 144.67525 
L 221.852631 99.864046 
" clip-path="url(#p44d6825642)" style="fill: none; stroke-dasharray: 0.925,0.4; stroke-dashoffset: 0; stroke: #b0b0b0; stroke-width: 0.25"/>
     </g>
     <g id="line2d_138">
      <g>
       <use xlink:href="#mf5ae3c2076" x="221.852631" y="144.67525" style="stroke: #000000; stroke-width: 0.8"/>
      </g>
     </g>
     <g id="text_34">
      <!-- 15 -->
      <g transform="translate(217.398881 156.994156) scale(0.07 -0.07)">
       <use xlink:href="#DejaVuSans-31"/>
       <use xlink:href="#DejaVuSans-35" x="63.623047"/>
      </g>
     </g>
    </g>
    <g id="xtick_20">
     <g id="line2d_139">
      <path d="M 246.136141 144.67525 
L 246.136141 99.864046 
" clip-path="url(#p44d6825642)" style="fill: none; stroke-dasharray: 0.925,0.4; stroke-dashoffset: 0; stroke: #b0b0b0; stroke-width: 0.25"/>
     </g>
     <g id="line2d_140">
      <g>
       <use xlink:href="#mf5ae3c2076" x="246.136141" y="144.67525" style="stroke: #000000; stroke-width: 0.8"/>
      </g>
     </g>
     <g id="text_35">
      <!-- 21 -->
      <g transform="translate(241.682391 156.994156) scale(0.07 -0.07)">
       <use xlink:href="#DejaVuSans-32"/>
       <use xlink:href="#DejaVuSans-31" x="63.623047"/>
      </g>
     </g>
    </g>
    <g id="text_36">
     <!-- Hour -->
     <g transform="translate(199.2185 168.036188) scale(0.08 -0.08)">
      <use xlink:href="#LinBiolinum-48"/>
      <use xlink:href="#LinBiolinum-6f" x="72.558594"/>
      <use xlink:href="#LinBiolinum-75" x="122.558594"/>
      <use xlink:href="#LinBiolinum-72" x="176.220703"/>
     </g>
    </g>
   </g>
   <g id="matplotlib.axis_10">
    <g id="ytick_77">
     <g id="line2d_141">
      <path d="M 156.489516 141.134075 
L 258.884984 141.134075 
" clip-path="url(#p44d6825642)" style="fill: none; stroke-dasharray: 0.925,0.4; stroke-dashoffset: 0; stroke: #b0b0b0; stroke-width: 0.25"/>
     </g>
     <g id="line2d_142">
      <g>
       <use xlink:href="#mfda4aba477" x="156.489516" y="141.134075" style="stroke: #000000; stroke-width: 0.8"/>
      </g>
     </g>
    </g>
    <g id="ytick_78">
     <g id="line2d_143">
      <path d="M 156.489516 129.002611 
L 258.884984 129.002611 
" clip-path="url(#p44d6825642)" style="fill: none; stroke-dasharray: 0.925,0.4; stroke-dashoffset: 0; stroke: #b0b0b0; stroke-width: 0.25"/>
     </g>
     <g id="line2d_144">
      <g>
       <use xlink:href="#mfda4aba477" x="156.489516" y="129.002611" style="stroke: #000000; stroke-width: 0.8"/>
      </g>
     </g>
    </g>
    <g id="ytick_79">
     <g id="line2d_145">
      <path d="M 156.489516 116.871147 
L 258.884984 116.871147 
" clip-path="url(#p44d6825642)" style="fill: none; stroke-dasharray: 0.925,0.4; stroke-dashoffset: 0; stroke: #b0b0b0; stroke-width: 0.25"/>
     </g>
     <g id="line2d_146">
      <g>
       <use xlink:href="#mfda4aba477" x="156.489516" y="116.871147" style="stroke: #000000; stroke-width: 0.8"/>
      </g>
     </g>
    </g>
    <g id="ytick_80">
     <g id="line2d_147">
      <path d="M 156.489516 104.739682 
L 258.884984 104.739682 
" clip-path="url(#p44d6825642)" style="fill: none; stroke-dasharray: 0.925,0.4; stroke-dashoffset: 0; stroke: #b0b0b0; stroke-width: 0.25"/>
     </g>
     <g id="line2d_148">
      <g>
       <use xlink:href="#mfda4aba477" x="156.489516" y="104.739682" style="stroke: #000000; stroke-width: 0.8"/>
      </g>
     </g>
    </g>
    <g id="ytick_81">
     <g id="line2d_149">
      <g>
       <use xlink:href="#m125a8ea00f" x="156.489516" y="143.560368" style="stroke: #000000; stroke-width: 0.6"/>
      </g>
     </g>
    </g>
    <g id="ytick_82">
     <g id="line2d_150">
      <g>
       <use xlink:href="#m125a8ea00f" x="156.489516" y="138.707783" style="stroke: #000000; stroke-width: 0.6"/>
      </g>
     </g>
    </g>
    <g id="ytick_83">
     <g id="line2d_151">
      <g>
       <use xlink:href="#m125a8ea00f" x="156.489516" y="136.28149" style="stroke: #000000; stroke-width: 0.6"/>
      </g>
     </g>
    </g>
    <g id="ytick_84">
     <g id="line2d_152">
      <g>
       <use xlink:href="#m125a8ea00f" x="156.489516" y="133.855197" style="stroke: #000000; stroke-width: 0.6"/>
      </g>
     </g>
    </g>
    <g id="ytick_85">
     <g id="line2d_153">
      <g>
       <use xlink:href="#m125a8ea00f" x="156.489516" y="131.428904" style="stroke: #000000; stroke-width: 0.6"/>
      </g>
     </g>
    </g>
    <g id="ytick_86">
     <g id="line2d_154">
      <g>
       <use xlink:href="#m125a8ea00f" x="156.489516" y="126.576318" style="stroke: #000000; stroke-width: 0.6"/>
      </g>
     </g>
    </g>
    <g id="ytick_87">
     <g id="line2d_155">
      <g>
       <use xlink:href="#m125a8ea00f" x="156.489516" y="124.150025" style="stroke: #000000; stroke-width: 0.6"/>
      </g>
     </g>
    </g>
    <g id="ytick_88">
     <g id="line2d_156">
      <g>
       <use xlink:href="#m125a8ea00f" x="156.489516" y="121.723732" style="stroke: #000000; stroke-width: 0.6"/>
      </g>
     </g>
    </g>
    <g id="ytick_89">
     <g id="line2d_157">
      <g>
       <use xlink:href="#m125a8ea00f" x="156.489516" y="119.297439" style="stroke: #000000; stroke-width: 0.6"/>
      </g>
     </g>
    </g>
    <g id="ytick_90">
     <g id="line2d_158">
      <g>
       <use xlink:href="#m125a8ea00f" x="156.489516" y="114.444854" style="stroke: #000000; stroke-width: 0.6"/>
      </g>
     </g>
    </g>
    <g id="ytick_91">
     <g id="line2d_159">
      <g>
       <use xlink:href="#m125a8ea00f" x="156.489516" y="112.018561" style="stroke: #000000; stroke-width: 0.6"/>
      </g>
     </g>
    </g>
    <g id="ytick_92">
     <g id="line2d_160">
      <g>
       <use xlink:href="#m125a8ea00f" x="156.489516" y="109.592268" style="stroke: #000000; stroke-width: 0.6"/>
      </g>
     </g>
    </g>
    <g id="ytick_93">
     <g id="line2d_161">
      <g>
       <use xlink:href="#m125a8ea00f" x="156.489516" y="107.165975" style="stroke: #000000; stroke-width: 0.6"/>
      </g>
     </g>
    </g>
    <g id="ytick_94">
     <g id="line2d_162">
      <g>
       <use xlink:href="#m125a8ea00f" x="156.489516" y="102.313389" style="stroke: #000000; stroke-width: 0.6"/>
      </g>
     </g>
    </g>
    <g id="ytick_95">
     <g id="line2d_163">
      <g>
       <use xlink:href="#m125a8ea00f" x="156.489516" y="99.887096" style="stroke: #000000; stroke-width: 0.6"/>
      </g>
     </g>
    </g>
   </g>
   <g id="line2d_164">
    <path d="M 161.143855 123.027857 
L 165.191107 123.834222 
L 169.238359 124.468494 
L 173.28561 124.075367 
L 177.332862 123.511895 
L 181.380114 120.415867 
L 185.427365 118.281979 
L 189.474617 117.463105 
L 193.521869 118.773402 
L 197.569121 121.101489 
L 201.616372 122.712236 
L 205.663624 123.225172 
L 209.710876 124.584373 
L 213.758128 124.890635 
L 217.805379 124.75589 
L 221.852631 122.728765 
L 225.899883 121.451584 
L 229.947135 120.901102 
L 233.994386 118.969909 
L 238.041638 119.172923 
L 242.08889 120.53719 
L 246.136141 122.091134 
L 250.183393 122.97597 
L 254.230645 124.063868 
" clip-path="url(#p44d6825642)" style="fill: none; stroke: #ff0000; stroke-width: 0.7; stroke-linecap: square"/>
   </g>
   <g id="line2d_165">
    <path d="M 161.143855 129.584921 
L 165.191107 129.827551 
L 169.238359 130.215757 
L 173.28561 130.337073 
L 177.332862 128.493089 
L 181.380114 125.435961 
L 185.427365 122.936879 
L 189.474617 123.179508 
L 193.521869 123.519189 
L 197.569121 124.659547 
L 201.616372 126.09106 
L 205.663624 125.84843 
L 209.710876 127.49831 
L 213.758128 128.129145 
L 217.805379 127.740939 
L 221.852631 125.872693 
L 225.899883 124.01658 
L 229.947135 122.378831 
L 233.994386 123.179508 
L 238.041638 124.247077 
L 242.08889 125.654327 
L 246.136141 127.886516 
L 250.183393 129.148188 
L 254.230645 129.924603 
" clip-path="url(#p44d6825642)" style="fill: none; stroke-dasharray: 2.59,1.12; stroke-dashoffset: 0; stroke: #0000ff; stroke-width: 0.7"/>
   </g>
   <g id="patch_23">
    <path d="M 156.489516 144.67525 
L 156.489516 99.864046 
" style="fill: none; stroke: #000000; stroke-width: 0.8; stroke-linejoin: miter; stroke-linecap: square"/>
   </g>
   <g id="patch_24">
    <path d="M 258.884984 144.67525 
L 258.884984 99.864046 
" style="fill: none; stroke: #000000; stroke-width: 0.8; stroke-linejoin: miter; stroke-linecap: square"/>
   </g>
   <g id="patch_25">
    <path d="M 156.489516 144.67525 
L 258.884984 144.67525 
" style="fill: none; stroke: #000000; stroke-width: 0.8; stroke-linejoin: miter; stroke-linecap: square"/>
   </g>
   <g id="patch_26">
    <path d="M 156.489516 99.864046 
L 258.884984 99.864046 
" style="fill: none; stroke: #000000; stroke-width: 0.8; stroke-linejoin: miter; stroke-linecap: square"/>
   </g>
   <g id="text_37">
    <!-- 2024-04-02 -->
    <g transform="translate(188.243031 93.864046) scale(0.09 -0.09)">
     <use xlink:href="#LinBiolinum-32"/>
     <use xlink:href="#LinBiolinum-30" x="44.384766"/>
     <use xlink:href="#LinBiolinum-32" x="90.869141"/>
     <use xlink:href="#LinBiolinum-34" x="135.253906"/>
     <use xlink:href="#LinBiolinum-2d" x="181.738281"/>
     <use xlink:href="#LinBiolinum-30" x="214.990234"/>
     <use xlink:href="#LinBiolinum-34" x="261.474609"/>
     <use xlink:href="#LinBiolinum-2d" x="307.958984"/>
     <use xlink:href="#LinBiolinum-30" x="341.210938"/>
     <use xlink:href="#LinBiolinum-32" x="387.695312"/>
    </g>
   </g>
  </g>
  <g id="axes_6">
   <g id="patch_27">
    <path d="M 269.124531 144.67525 
L 371.52 144.67525 
L 371.52 99.864046 
L 269.124531 99.864046 
z
" style="fill: #ffffff"/>
   </g>
   <g id="matplotlib.axis_11">
    <g id="xtick_21">
     <g id="line2d_166">
      <path d="M 285.920626 144.67525 
L 285.920626 99.864046 
" clip-path="url(#p85cdc4db0c)" style="fill: none; stroke-dasharray: 0.925,0.4; stroke-dashoffset: 0; stroke: #b0b0b0; stroke-width: 0.25"/>
     </g>
     <g id="line2d_167">
      <g>
       <use xlink:href="#mf5ae3c2076" x="285.920626" y="144.67525" style="stroke: #000000; stroke-width: 0.8"/>
      </g>
     </g>
     <g id="text_38">
      <!-- 03 -->
      <g transform="translate(281.466876 156.994156) scale(0.07 -0.07)">
       <use xlink:href="#DejaVuSans-30"/>
       <use xlink:href="#DejaVuSans-33" x="63.623047"/>
      </g>
     </g>
    </g>
    <g id="xtick_22">
     <g id="line2d_168">
      <path d="M 310.204136 144.67525 
L 310.204136 99.864046 
" clip-path="url(#p85cdc4db0c)" style="fill: none; stroke-dasharray: 0.925,0.4; stroke-dashoffset: 0; stroke: #b0b0b0; stroke-width: 0.25"/>
     </g>
     <g id="line2d_169">
      <g>
       <use xlink:href="#mf5ae3c2076" x="310.204136" y="144.67525" style="stroke: #000000; stroke-width: 0.8"/>
      </g>
     </g>
     <g id="text_39">
      <!-- 09 -->
      <g transform="translate(305.750386 156.994156) scale(0.07 -0.07)">
       <use xlink:href="#DejaVuSans-30"/>
       <use xlink:href="#DejaVuSans-39" x="63.623047"/>
      </g>
     </g>
    </g>
    <g id="xtick_23">
     <g id="line2d_170">
      <path d="M 334.487647 144.67525 
L 334.487647 99.864046 
" clip-path="url(#p85cdc4db0c)" style="fill: none; stroke-dasharray: 0.925,0.4; stroke-dashoffset: 0; stroke: #b0b0b0; stroke-width: 0.25"/>
     </g>
     <g id="line2d_171">
      <g>
       <use xlink:href="#mf5ae3c2076" x="334.487647" y="144.67525" style="stroke: #000000; stroke-width: 0.8"/>
      </g>
     </g>
     <g id="text_40">
      <!-- 15 -->
      <g transform="translate(330.033897 156.994156) scale(0.07 -0.07)">
       <use xlink:href="#DejaVuSans-31"/>
       <use xlink:href="#DejaVuSans-35" x="63.623047"/>
      </g>
     </g>
    </g>
    <g id="xtick_24">
     <g id="line2d_172">
      <path d="M 358.771157 144.67525 
L 358.771157 99.864046 
" clip-path="url(#p85cdc4db0c)" style="fill: none; stroke-dasharray: 0.925,0.4; stroke-dashoffset: 0; stroke: #b0b0b0; stroke-width: 0.25"/>
     </g>
     <g id="line2d_173">
      <g>
       <use xlink:href="#mf5ae3c2076" x="358.771157" y="144.67525" style="stroke: #000000; stroke-width: 0.8"/>
      </g>
     </g>
     <g id="text_41">
      <!-- 21 -->
      <g transform="translate(354.317407 156.994156) scale(0.07 -0.07)">
       <use xlink:href="#DejaVuSans-32"/>
       <use xlink:href="#DejaVuSans-31" x="63.623047"/>
      </g>
     </g>
    </g>
    <g id="text_42">
     <!-- Hour -->
     <g transform="translate(311.853516 168.036188) scale(0.08 -0.08)">
      <use xlink:href="#LinBiolinum-48"/>
      <use xlink:href="#LinBiolinum-6f" x="72.558594"/>
      <use xlink:href="#LinBiolinum-75" x="122.558594"/>
      <use xlink:href="#LinBiolinum-72" x="176.220703"/>
     </g>
    </g>
   </g>
   <g id="matplotlib.axis_12">
    <g id="ytick_96">
     <g id="line2d_174">
      <path d="M 269.124531 141.134075 
L 371.52 141.134075 
" clip-path="url(#p85cdc4db0c)" style="fill: none; stroke-dasharray: 0.925,0.4; stroke-dashoffset: 0; stroke: #b0b0b0; stroke-width: 0.25"/>
     </g>
     <g id="line2d_175">
      <g>
       <use xlink:href="#mfda4aba477" x="269.124531" y="141.134075" style="stroke: #000000; stroke-width: 0.8"/>
      </g>
     </g>
    </g>
    <g id="ytick_97">
     <g id="line2d_176">
      <path d="M 269.124531 129.002611 
L 371.52 129.002611 
" clip-path="url(#p85cdc4db0c)" style="fill: none; stroke-dasharray: 0.925,0.4; stroke-dashoffset: 0; stroke: #b0b0b0; stroke-width: 0.25"/>
     </g>
     <g id="line2d_177">
      <g>
       <use xlink:href="#mfda4aba477" x="269.124531" y="129.002611" style="stroke: #000000; stroke-width: 0.8"/>
      </g>
     </g>
    </g>
    <g id="ytick_98">
     <g id="line2d_178">
      <path d="M 269.124531 116.871147 
L 371.52 116.871147 
" clip-path="url(#p85cdc4db0c)" style="fill: none; stroke-dasharray: 0.925,0.4; stroke-dashoffset: 0; stroke: #b0b0b0; stroke-width: 0.25"/>
     </g>
     <g id="line2d_179">
      <g>
       <use xlink:href="#mfda4aba477" x="269.124531" y="116.871147" style="stroke: #000000; stroke-width: 0.8"/>
      </g>
     </g>
    </g>
    <g id="ytick_99">
     <g id="line2d_180">
      <path d="M 269.124531 104.739682 
L 371.52 104.739682 
" clip-path="url(#p85cdc4db0c)" style="fill: none; stroke-dasharray: 0.925,0.4; stroke-dashoffset: 0; stroke: #b0b0b0; stroke-width: 0.25"/>
     </g>
     <g id="line2d_181">
      <g>
       <use xlink:href="#mfda4aba477" x="269.124531" y="104.739682" style="stroke: #000000; stroke-width: 0.8"/>
      </g>
     </g>
    </g>
    <g id="ytick_100">
     <g id="line2d_182">
      <g>
       <use xlink:href="#m125a8ea00f" x="269.124531" y="143.560368" style="stroke: #000000; stroke-width: 0.6"/>
      </g>
     </g>
    </g>
    <g id="ytick_101">
     <g id="line2d_183">
      <g>
       <use xlink:href="#m125a8ea00f" x="269.124531" y="138.707783" style="stroke: #000000; stroke-width: 0.6"/>
      </g>
     </g>
    </g>
    <g id="ytick_102">
     <g id="line2d_184">
      <g>
       <use xlink:href="#m125a8ea00f" x="269.124531" y="136.28149" style="stroke: #000000; stroke-width: 0.6"/>
      </g>
     </g>
    </g>
    <g id="ytick_103">
     <g id="line2d_185">
      <g>
       <use xlink:href="#m125a8ea00f" x="269.124531" y="133.855197" style="stroke: #000000; stroke-width: 0.6"/>
      </g>
     </g>
    </g>
    <g id="ytick_104">
     <g id="line2d_186">
      <g>
       <use xlink:href="#m125a8ea00f" x="269.124531" y="131.428904" style="stroke: #000000; stroke-width: 0.6"/>
      </g>
     </g>
    </g>
    <g id="ytick_105">
     <g id="line2d_187">
      <g>
       <use xlink:href="#m125a8ea00f" x="269.124531" y="126.576318" style="stroke: #000000; stroke-width: 0.6"/>
      </g>
     </g>
    </g>
    <g id="ytick_106">
     <g id="line2d_188">
      <g>
       <use xlink:href="#m125a8ea00f" x="269.124531" y="124.150025" style="stroke: #000000; stroke-width: 0.6"/>
      </g>
     </g>
    </g>
    <g id="ytick_107">
     <g id="line2d_189">
      <g>
       <use xlink:href="#m125a8ea00f" x="269.124531" y="121.723732" style="stroke: #000000; stroke-width: 0.6"/>
      </g>
     </g>
    </g>
    <g id="ytick_108">
     <g id="line2d_190">
      <g>
       <use xlink:href="#m125a8ea00f" x="269.124531" y="119.297439" style="stroke: #000000; stroke-width: 0.6"/>
      </g>
     </g>
    </g>
    <g id="ytick_109">
     <g id="line2d_191">
      <g>
       <use xlink:href="#m125a8ea00f" x="269.124531" y="114.444854" style="stroke: #000000; stroke-width: 0.6"/>
      </g>
     </g>
    </g>
    <g id="ytick_110">
     <g id="line2d_192">
      <g>
       <use xlink:href="#m125a8ea00f" x="269.124531" y="112.018561" style="stroke: #000000; stroke-width: 0.6"/>
      </g>
     </g>
    </g>
    <g id="ytick_111">
     <g id="line2d_193">
      <g>
       <use xlink:href="#m125a8ea00f" x="269.124531" y="109.592268" style="stroke: #000000; stroke-width: 0.6"/>
      </g>
     </g>
    </g>
    <g id="ytick_112">
     <g id="line2d_194">
      <g>
       <use xlink:href="#m125a8ea00f" x="269.124531" y="107.165975" style="stroke: #000000; stroke-width: 0.6"/>
      </g>
     </g>
    </g>
    <g id="ytick_113">
     <g id="line2d_195">
      <g>
       <use xlink:href="#m125a8ea00f" x="269.124531" y="102.313389" style="stroke: #000000; stroke-width: 0.6"/>
      </g>
     </g>
    </g>
    <g id="ytick_114">
     <g id="line2d_196">
      <g>
       <use xlink:href="#m125a8ea00f" x="269.124531" y="99.887096" style="stroke: #000000; stroke-width: 0.6"/>
      </g>
     </g>
    </g>
   </g>
   <g id="line2d_197">
    <path d="M 273.778871 129.007637 
L 277.826122 131.601977 
L 281.873374 133.786876 
L 285.920626 133.252205 
L 289.967878 133.831722 
L 294.015129 131.567074 
L 298.062381 129.953176 
L 302.109633 128.380925 
L 306.156885 126.854983 
L 310.204136 125.303596 
L 314.251388 126.288128 
L 318.29864 125.784884 
L 322.345891 126.876831 
L 326.393143 126.823394 
L 330.440395 125.735691 
L 334.487647 123.495118 
L 338.534898 119.328911 
L 342.58215 114.803411 
L 346.629402 115.441587 
L 350.676654 118.429435 
L 354.723905 121.165811 
L 358.771157 121.958896 
L 362.818409 123.651569 
L 366.865661 126.099036 
" clip-path="url(#p85cdc4db0c)" style="fill: none; stroke: #ff0000; stroke-width: 0.7; stroke-linecap: square"/>
   </g>
   <g id="line2d_198">
    <path d="M 273.778871 142.638377 
L 277.826122 142.031804 
L 281.873374 142.153118 
L 285.920626 142.104593 
L 289.967878 140.84292 
L 294.015129 137.252007 
L 298.062381 130.337073 
L 302.109633 128.687193 
L 306.156885 129.24524 
L 310.204136 131.574481 
L 314.251388 136.063124 
L 318.29864 138.950412 
L 322.345891 140.163558 
L 326.393143 139.702563 
L 330.440395 139.193041 
L 334.487647 126.746159 
L 338.534898 115.41537 
L 342.58215 107.505657 
L 346.629402 108.015178 
L 350.676654 113.377286 
L 354.723905 118.157081 
L 358.771157 123.664767 
L 362.818409 126.576318 
L 366.865661 131.525956 
" clip-path="url(#p85cdc4db0c)" style="fill: none; stroke-dasharray: 2.59,1.12; stroke-dashoffset: 0; stroke: #0000ff; stroke-width: 0.7"/>
   </g>
   <g id="patch_28">
    <path d="M 269.124531 144.67525 
L 269.124531 99.864046 
" style="fill: none; stroke: #000000; stroke-width: 0.8; stroke-linejoin: miter; stroke-linecap: square"/>
   </g>
   <g id="patch_29">
    <path d="M 371.52 144.67525 
L 371.52 99.864046 
" style="fill: none; stroke: #000000; stroke-width: 0.8; stroke-linejoin: miter; stroke-linecap: square"/>
   </g>
   <g id="patch_30">
    <path d="M 269.124531 144.67525 
L 371.52 144.67525 
" style="fill: none; stroke: #000000; stroke-width: 0.8; stroke-linejoin: miter; stroke-linecap: square"/>
   </g>
   <g id="patch_31">
    <path d="M 269.124531 99.864046 
L 371.52 99.864046 
" style="fill: none; stroke: #000000; stroke-width: 0.8; stroke-linejoin: miter; stroke-linecap: square"/>
   </g>
   <g id="text_43">
    <!-- 2023-10-13 -->
    <g transform="translate(300.783828 93.864046) scale(0.09 -0.09)">
     <use xlink:href="#LinBiolinum-32"/>
     <use xlink:href="#LinBiolinum-30" x="44.384766"/>
     <use xlink:href="#LinBiolinum-32" x="90.869141"/>
     <use xlink:href="#LinBiolinum-33" x="135.253906"/>
     <use xlink:href="#LinBiolinum-2d" x="181.738281"/>
     <use xlink:href="#LinBiolinum-31" x="214.990234"/>
     <use xlink:href="#LinBiolinum-30" x="261.474609"/>
     <use xlink:href="#LinBiolinum-2d" x="307.958984"/>
     <use xlink:href="#LinBiolinum-31" x="341.210938"/>
     <use xlink:href="#LinBiolinum-33" x="387.695312"/>
    </g>
   </g>
  </g>
  <g id="legend_1">
   <g id="line2d_199">
    <path d="M 122.542031 176.065875 
L 132.542031 176.065875 
L 142.542031 176.065875 
" style="fill: none; stroke: #ff0000; stroke-width: 0.7; stroke-linecap: square"/>
   </g>
   <g id="text_44">
    <!-- Forecast -->
    <g transform="translate(150.542031 179.565875) scale(0.1 -0.1)">
     <defs>
      <path id="LinBiolinum-46" d="M 2606 4128 
Q 2856 4128 3009 4147 
L 3022 4128 
Q 3009 3950 3009 3909 
Q 3009 3819 3022 3719 
L 3009 3694 
Q 2125 3772 1269 3769 
Q 1219 3597 1216 2847 
L 1216 2350 
Q 1888 2350 2644 2413 
L 2663 2394 
Q 2644 2303 2644 2189 
Q 2644 2075 2663 1984 
L 2644 1966 
Q 2009 2028 1216 2028 
L 1216 1281 
Q 1216 456 1281 0 
L 1269 -19 
Q 1159 0 941 0 
L 609 -19 
L 603 0 
Q 666 434 666 1281 
L 666 2847 
Q 666 3672 603 4128 
L 616 4147 
Q 725 4128 941 4128 
L 2606 4128 
z
" transform="scale(0.015625)"/>
      <path id="LinBiolinum-61" d="M 1984 1441 
L 1441 1294 
Q 1088 1197 947 1040 
Q 806 884 806 653 
Q 806 500 937 381 
Q 1069 263 1281 263 
Q 1538 263 1869 513 
Q 1959 575 1959 678 
L 1984 1441 
z
M 1984 306 
L 1959 306 
Q 1703 88 1526 12 
Q 1350 -63 1088 -63 
Q 716 -63 502 109 
Q 288 281 288 628 
Q 288 953 572 1200 
Q 856 1447 1350 1556 
L 1947 1691 
Q 1991 1703 1991 1766 
Q 1991 1972 1945 2122 
Q 1900 2272 1842 2345 
Q 1784 2419 1689 2461 
Q 1594 2503 1530 2512 
Q 1466 2522 1375 2522 
Q 1009 2522 672 1978 
L 588 1984 
L 481 2413 
L 500 2438 
Q 941 2809 1441 2809 
Q 2497 2809 2497 1772 
Q 2497 1750 2494 1617 
Q 2491 1484 2487 1332 
Q 2484 1181 2481 1025 
Q 2478 869 2478 806 
Q 2478 403 2584 306 
Q 2638 259 2772 259 
Q 2850 259 2944 294 
L 2994 134 
Q 2806 -63 2484 -63 
Q 2303 -63 2170 31 
Q 2038 125 1984 306 
z
" transform="scale(0.015625)"/>
      <path id="LinBiolinum-73" d="M 319 647 
L 416 653 
Q 747 194 1172 191 
Q 1434 191 1596 333 
Q 1759 475 1759 722 
Q 1759 941 1603 1047 
Q 1447 1153 1113 1241 
Q 753 1338 550 1511 
Q 347 1684 347 2028 
Q 347 2400 634 2604 
Q 922 2809 1313 2809 
Q 1806 2809 2175 2619 
L 2188 2597 
L 2059 2125 
L 1972 2119 
Q 1850 2259 1792 2320 
Q 1734 2381 1587 2467 
Q 1441 2553 1288 2553 
Q 1075 2553 937 2448 
Q 800 2344 800 2150 
Q 800 1791 1394 1650 
Q 1791 1553 2028 1362 
Q 2266 1172 2266 813 
Q 2266 666 2217 525 
Q 2169 384 2058 243 
Q 1947 103 1719 20 
Q 1491 -63 1178 -63 
Q 703 -63 213 109 
L 319 647 
z
" transform="scale(0.015625)"/>
      <path id="LinBiolinum-74" d="M 609 2747 
Q 609 2944 621 3200 
Q 634 3456 634 3566 
L 647 3584 
Q 744 3597 811 3619 
Q 878 3641 964 3683 
Q 1050 3725 1094 3744 
Q 1150 3744 1153 3681 
Q 1122 3272 1119 2747 
L 1422 2747 
Q 1544 2747 1869 2759 
L 1900 2713 
Q 1850 2584 1825 2450 
Q 1697 2463 1363 2463 
L 1119 2463 
L 1119 1656 
Q 1119 1438 1109 1158 
Q 1100 878 1100 806 
Q 1100 313 1313 281 
Q 1559 241 1816 331 
L 1894 172 
Q 1522 -66 1153 -63 
Q 916 -63 752 96 
Q 588 256 588 550 
Q 588 622 598 995 
Q 609 1369 609 1588 
L 609 2463 
Q 309 2463 153 2450 
L 122 2497 
Q 213 2638 263 2759 
Q 353 2747 609 2747 
z
" transform="scale(0.015625)"/>
     </defs>
     <use xlink:href="#LinBiolinum-46"/>
     <use xlink:href="#LinBiolinum-6f" x="50.390625"/>
     <use xlink:href="#LinBiolinum-72" x="100.390625"/>
     <use xlink:href="#LinBiolinum-65" x="135.888672"/>
     <use xlink:href="#LinBiolinum-63" x="181.152344"/>
     <use xlink:href="#LinBiolinum-61" x="224.023438"/>
     <use xlink:href="#LinBiolinum-73" x="272.119141"/>
     <use xlink:href="#LinBiolinum-74" x="311.71875"/>
    </g>
   </g>
   <g id="line2d_200">
    <path d="M 205.112344 176.065875 
L 215.112344 176.065875 
L 225.112344 176.065875 
" style="fill: none; stroke-dasharray: 2.59,1.12; stroke-dashoffset: 0; stroke: #0000ff; stroke-width: 0.7"/>
   </g>
   <g id="text_45">
    <!-- Target -->
    <g transform="translate(233.112344 179.565875) scale(0.1 -0.1)">
     <defs>
      <path id="LinBiolinum-54" d="M 1453 2847 
Q 1453 3597 1403 3769 
Q 1019 3769 695 3747 
Q 372 3725 241 3703 
L 109 3681 
L 97 3706 
Q 116 3853 97 4128 
L 109 4147 
Q 263 4128 494 4128 
L 2963 4128 
Q 3194 4128 3347 4147 
L 3359 4128 
Q 3341 3853 3359 3706 
L 3347 3681 
Q 2913 3772 2053 3769 
Q 2003 3597 2003 2847 
L 2003 1281 
Q 2003 456 2069 0 
L 2053 -19 
Q 1938 0 1727 0 
Q 1516 0 1403 -19 
L 1388 0 
Q 1450 434 1453 1281 
L 1453 2847 
z
" transform="scale(0.015625)"/>
      <path id="LinBiolinum-67" d="M 647 -666 
Q 647 -863 815 -1005 
Q 984 -1147 1167 -1197 
Q 1350 -1247 1484 -1247 
Q 1925 -1247 2242 -1087 
Q 2559 -928 2559 -647 
Q 2559 -334 2309 -184 
Q 2125 -75 1631 -78 
Q 1600 -78 1386 -87 
Q 1172 -97 1063 -97 
Q 891 -194 769 -353 
Q 647 -513 647 -666 
z
M 2497 1850 
Q 2497 1428 2222 1150 
Q 1947 872 1434 872 
Q 1128 872 959 959 
Q 769 794 769 603 
Q 769 419 867 359 
Q 966 300 1141 300 
Q 1147 300 1325 313 
Q 1569 344 1856 347 
Q 2509 347 2759 134 
Q 3028 -97 3028 -500 
Q 3028 -825 2765 -1065 
Q 2503 -1306 2122 -1414 
Q 1741 -1522 1306 -1522 
Q 1044 -1522 809 -1462 
Q 575 -1403 390 -1229 
Q 206 -1056 206 -794 
Q 206 -597 353 -372 
Q 431 -309 875 -59 
Q 888 -53 897 -47 
Q 650 -3 529 145 
Q 409 294 409 506 
Q 409 763 806 1038 
Q 353 1300 353 1838 
Q 353 2284 689 2546 
Q 1025 2809 1441 2809 
Q 1656 2809 1831 2753 
Q 2103 2769 2422 2817 
Q 2741 2866 2841 2875 
L 2859 2853 
Q 2841 2763 2841 2688 
Q 2841 2613 2859 2522 
L 2841 2503 
Q 2244 2566 2175 2569 
Q 2497 2356 2497 1850 
z
M 1997 1819 
Q 1997 2569 1416 2566 
Q 1141 2566 995 2380 
Q 850 2194 850 1869 
Q 850 1497 990 1311 
Q 1131 1125 1466 1125 
Q 1753 1125 1875 1306 
Q 1997 1488 1997 1819 
z
" transform="scale(0.015625)"/>
     </defs>
     <use xlink:href="#LinBiolinum-54"/>
     <use xlink:href="#LinBiolinum-61" x="53.955078"/>
     <use xlink:href="#LinBiolinum-72" x="102.050781"/>
     <use xlink:href="#LinBiolinum-67" x="137.548828"/>
     <use xlink:href="#LinBiolinum-65" x="187.402344"/>
     <use xlink:href="#LinBiolinum-74" x="232.666016"/>
    </g>
   </g>
  </g>
 </g>
 <defs>
  <clipPath id="p63ac743612">
   <rect x="43.8545" y="23.685" width="102.395469" height="44.811204"/>
  </clipPath>
  <clipPath id="pd891b5d837">
   <rect x="156.489516" y="23.685" width="102.395469" height="44.811204"/>
  </clipPath>
  <clipPath id="p9e4a99af33">
   <rect x="269.124531" y="23.685" width="102.395469" height="44.811204"/>
  </clipPath>
  <clipPath id="p1a61fca3f5">
   <rect x="43.8545" y="99.864046" width="102.395469" height="44.811204"/>
  </clipPath>
  <clipPath id="p44d6825642">
   <rect x="156.489516" y="99.864046" width="102.395469" height="44.811204"/>
  </clipPath>
  <clipPath id="p85cdc4db0c">
   <rect x="269.124531" y="99.864046" width="102.395469" height="44.811204"/>
  </clipPath>
 </defs>
</svg>
